<?xml version="1.0" encoding="utf-8"?>
<!-- Generator: Adobe Illustrator 23.0.3, SVG Export Plug-In . SVG Version: 6.00 Build 0)  -->
<svg version="1.1" id="Layer_2" xmlns="http://www.w3.org/2000/svg" xmlns:xlink="http://www.w3.org/1999/xlink" x="0px" y="0px"
	 width="892.2px" height="629.5px" viewBox="0 0 892.2 629.5" style="enable-background:new 0 0 892.2 629.5;" xml:space="preserve"
	>
<style type="text/css">
	.st0{fill:#6C6C6C;}
	.st1{fill:#08989F;}
	.st2{fill:#FFFFFF;}
	.st3{fill:#ED1C24;}
	.st4{fill:#FFFFFF;stroke:#FFFFFF;stroke-width:5;stroke-miterlimit:10;}
	.st5{fill:#486CB4;}
	.st6{fill:none;stroke:#A09F9F;stroke-width:2;stroke-miterlimit:10;}
	.st7{fill:none;stroke:#A09F9F;stroke-width:3;stroke-miterlimit:10;}
	.st8{fill:#A09F9F;}
	.st9{fill:none;stroke:#A09F9F;stroke-width:3;stroke-linecap:round;stroke-linejoin:round;stroke-miterlimit:10;}
	.st10{fill:#19A9DC;}
	.st11{fill:#058DB9;}
	.st12{fill:#34BEEF;}
	.st13{fill:none;stroke:#A09F9F;stroke-miterlimit:10;}
</style>
<rect x="1.9" y="289.5" class="st0" width="889.5" height="72.6"/>
<rect x="1.4" y="219.2" class="st1" width="889.5" height="55.1"/>
<g>
	<path class="st2" d="M330.6,237h3l6.9,16.8h-2.7l-1.9-4.9h-7.5l-2,4.9h-2.6L330.6,237z M334.9,246.8l-2.9-7.4l-2.9,7.4H334.9z"/>
	<path class="st2" d="M343.7,248.9c0,1.9,1.2,3.1,3,3.1c1.3,0,2.3-0.6,3-1.6v-8.8h2.4v12.2h-2.4v-1.2c-1,1-2.2,1.5-3.7,1.5
		c-2.8,0-4.8-2-4.8-4.8v-7.7h2.4V248.9z"/>
	<path class="st2" d="M356.6,243.6H354v-2h2.6v-3.1l2.4-0.6v3.7h3.6v2h-3.6v6.6c0,1.2,0.5,1.7,1.8,1.7c0.7,0,1.2-0.1,1.8-0.3v2
		c-0.6,0.2-1.6,0.4-2.3,0.4c-2.4,0-3.6-1.1-3.6-3.2V243.6z"/>
	<path class="st2" d="M369.9,241.4c3.6,0,6.3,2.8,6.3,6.3c0,3.6-2.8,6.4-6.3,6.4s-6.4-2.8-6.4-6.4
		C363.5,244.1,366.3,241.4,369.9,241.4z M373.9,247.7c0-2.4-1.8-4.2-4-4.2c-2.2,0-4,1.8-4,4.2c0,2.4,1.8,4.2,4,4.2
		C372.1,251.9,373.9,250.1,373.9,247.7z"/>
	<path class="st2" d="M378.5,241.6h2.4v1.2c0.9-0.9,2.1-1.4,3.4-1.4c1.7,0,3,0.8,3.8,2c1-1.3,2.4-2,4.1-2c2.7,0,4.6,1.9,4.6,4.8v7.7
		h-2.4v-7.3c0-1.9-1.1-3.1-2.8-3.1c-1.2,0-2.2,0.6-2.9,1.6c0.1,0.3,0.1,0.7,0.1,1.1v7.7h-2.4v-7.3c0-1.9-1.1-3.1-2.8-3.1
		c-1.2,0-2.1,0.5-2.8,1.5v8.9h-2.4V241.6z"/>
	<path class="st2" d="M398.9,250.3c0-2.3,1.9-3.7,4.9-3.7c1.2,0,2.3,0.2,3.3,0.7V246c0-1.7-1-2.6-3-2.6c-1.1,0-2.3,0.3-3.8,1
		l-0.9-1.8c1.8-0.9,3.4-1.2,5-1.2c3.2,0,5,1.6,5,4.4v8.1h-2.4v-1.1c-1.1,0.9-2.3,1.3-3.8,1.3C400.8,254,398.9,252.5,398.9,250.3z
		 M404,252.3c1.3,0,2.4-0.4,3.2-1.2V249c-0.9-0.5-1.9-0.7-3.1-0.7c-1.8,0-2.8,0.8-2.8,2C401.2,251.4,402.3,252.3,404,252.3z"/>
	<path class="st2" d="M413.4,243.6h-2.6v-2h2.6v-3.1l2.4-0.6v3.7h3.6v2h-3.6v6.6c0,1.2,0.5,1.7,1.8,1.7c0.7,0,1.2-0.1,1.8-0.3v2
		c-0.6,0.2-1.6,0.4-2.3,0.4c-2.4,0-3.6-1.1-3.6-3.2V243.6z"/>
	<path class="st2" d="M426.8,254c-3.6,0-6.4-2.8-6.4-6.3c0-3.5,2.7-6.3,6.1-6.3c3.4,0,5.9,2.8,5.9,6.4v0.7h-9.6c0.3,2,2,3.5,4.1,3.5
		c1.2,0,2.3-0.4,3.1-1.1l1.5,1.5C430.1,253.5,428.6,254,426.8,254z M422.8,246.7h7.2c-0.4-1.9-1.8-3.3-3.6-3.3
		C424.6,243.4,423.1,244.7,422.8,246.7z"/>
	<path class="st2" d="M444.1,252.7c-1,0.9-2.3,1.3-3.7,1.3c-3.5,0-6.2-2.8-6.2-6.3c0-3.5,2.7-6.3,6.2-6.3c1.3,0,2.6,0.4,3.7,1.2V237
		l2.4-0.5v17.3h-2.4V252.7z M440.7,251.9c1.4,0,2.6-0.5,3.4-1.5v-5.5c-0.8-0.9-2-1.4-3.4-1.4c-2.4,0-4.2,1.8-4.2,4.2
		S438.3,251.9,440.7,251.9z"/>
	<path class="st2" d="M460.1,241.4c3.6,0,6.3,2.8,6.3,6.3c0,3.6-2.8,6.4-6.3,6.4s-6.4-2.8-6.4-6.4
		C453.7,244.1,456.6,241.4,460.1,241.4z M464.1,247.7c0-2.4-1.8-4.2-4-4.2c-2.2,0-4,1.8-4,4.2c0,2.4,1.8,4.2,4,4.2
		C462.3,251.9,464.1,250.1,464.1,247.7z"/>
	<path class="st2" d="M468.7,241.6h2.4v1.2c1-0.9,2.3-1.4,3.7-1.4c3.5,0,6.2,2.8,6.2,6.3c0,3.6-2.7,6.3-6.2,6.3
		c-1.3,0-2.6-0.4-3.7-1.2v6h-2.4V241.6z M471.1,245v5.5c0.8,0.9,2,1.4,3.4,1.4c2.4,0,4.1-1.8,4.1-4.2c0-2.4-1.8-4.2-4.1-4.2
		C473.1,243.5,471.9,244,471.1,245z"/>
	<path class="st2" d="M489.2,254c-3.6,0-6.4-2.8-6.4-6.3c0-3.5,2.7-6.3,6.1-6.3c3.4,0,5.9,2.8,5.9,6.4v0.7h-9.6c0.3,2,2,3.5,4.1,3.5
		c1.2,0,2.3-0.4,3.1-1.1l1.5,1.5C492.5,253.5,491,254,489.2,254z M485.2,246.7h7.2c-0.4-1.9-1.8-3.3-3.6-3.3
		C487,243.4,485.5,244.7,485.2,246.7z"/>
	<path class="st2" d="M497.1,241.6h2.4v1.6c0.7-1.2,1.9-1.8,3.4-1.8c0.5,0,0.9,0,1.2,0.2v2.2c-0.5-0.2-0.9-0.3-1.4-0.3
		c-1.4,0-2.5,0.8-3.2,2.2v8.2h-2.4V241.6z"/>
	<path class="st2" d="M504.9,250.3c0-2.3,1.9-3.7,4.9-3.7c1.2,0,2.3,0.2,3.3,0.7V246c0-1.7-1-2.6-3-2.6c-1.1,0-2.3,0.3-3.8,1
		l-0.9-1.8c1.8-0.9,3.4-1.2,5-1.2c3.2,0,5,1.6,5,4.4v8.1h-2.4v-1.1c-1.1,0.9-2.3,1.3-3.8,1.3C506.7,254,504.9,252.5,504.9,250.3z
		 M509.9,252.3c1.3,0,2.4-0.4,3.2-1.2V249c-0.9-0.5-1.9-0.7-3.1-0.7c-1.8,0-2.8,0.8-2.8,2C507.2,251.4,508.3,252.3,509.9,252.3z"/>
	<path class="st2" d="M519.4,243.6h-2.6v-2h2.6v-3.1l2.4-0.6v3.7h3.6v2h-3.6v6.6c0,1.2,0.5,1.7,1.8,1.7c0.7,0,1.2-0.1,1.8-0.3v2
		c-0.6,0.2-1.6,0.4-2.3,0.4c-2.4,0-3.6-1.1-3.6-3.2V243.6z"/>
	<path class="st2" d="M526.9,238.1c0-0.8,0.6-1.5,1.5-1.5s1.5,0.7,1.5,1.5s-0.7,1.5-1.5,1.5S526.9,239,526.9,238.1z M529.5,253.8
		h-2.4v-12.2h2.4V253.8z"/>
	<path class="st2" d="M538.2,241.4c3.6,0,6.3,2.8,6.3,6.3c0,3.6-2.8,6.4-6.3,6.4s-6.4-2.8-6.4-6.4
		C531.8,244.1,534.6,241.4,538.2,241.4z M542.1,247.7c0-2.4-1.8-4.2-4-4.2c-2.2,0-4,1.8-4,4.2c0,2.4,1.8,4.2,4,4.2
		C540.4,251.9,542.1,250.1,542.1,247.7z"/>
	<path class="st2" d="M546.8,241.6h2.4v1.2c1-1,2.2-1.5,3.7-1.5c2.8,0,4.8,1.9,4.8,4.8v7.7h-2.4v-7.3c0-1.9-1.2-3.1-3-3.1
		c-1.3,0-2.4,0.6-3,1.6v8.8h-2.4V241.6z"/>
	<path class="st2" d="M560.5,250.7c1.3,1,2.6,1.5,4,1.5c1.7,0,2.9-0.7,2.9-1.8c0-0.9-0.6-1.4-2-1.6l-2.2-0.3
		c-2.4-0.4-3.6-1.5-3.6-3.4c0-2.2,1.9-3.7,4.8-3.7c1.8,0,3.4,0.5,4.9,1.6l-1.2,1.6c-1.3-0.9-2.6-1.3-3.9-1.3c-1.5,0-2.4,0.7-2.4,1.7
		c0,0.9,0.6,1.3,2,1.5l2.2,0.3c2.4,0.4,3.7,1.5,3.7,3.4c0,2.2-2.2,3.8-5.1,3.8c-2.1,0-4-0.6-5.4-1.8L560.5,250.7z"/>
</g>
<rect x="2.7" y="378.8" class="st3" width="889.5" height="106.4"/>
<g>
	<g id="Layer_1-2_1_">
		<path class="st4" d="M383.8,316.7c-0.2-0.6-0.6-1.1-1.2-1.4l-11.2-5.4c-0.3-0.1-0.6-0.2-0.9-0.2s-0.6,0-0.9,0.1l-11.2,5.4
			c-0.6,0.3-1,0.7-1.1,1.4l-2.8,12.1c-0.1,0.6,0,1.3,0.4,1.8l7.8,9.6c0.4,0.4,1.1,0.7,1.7,0.8h12.4c0.7,0.1,1.3-0.2,1.7-0.8l7.8-9.6
			c0.4-0.5,0.5-1.1,0.4-1.8L383.8,316.7z"/>
		<path class="st5" d="M383.8,316.7c-0.2-0.6-0.6-1.1-1.2-1.4l-11.2-5.4c-0.3-0.1-0.6-0.2-0.9-0.2s-0.6,0-0.9,0.1l-11.2,5.4
			c-0.6,0.3-1,0.7-1.1,1.4l-2.8,12.1c-0.1,0.6,0,1.3,0.4,1.8l7.8,9.6c0.4,0.4,1.1,0.7,1.7,0.8h12.4c0.7,0.1,1.3-0.2,1.7-0.8l7.8-9.6
			c0.4-0.5,0.5-1.1,0.4-1.8L383.8,316.7z"/>
		<path class="st2" d="M382.1,328.3L382.1,328.3C382,328.3,382,328.3,382.1,328.3c-0.1-0.1-0.1-0.1-0.2-0.1c-0.1,0-0.3,0-0.4,0
			c-0.1,0-0.1,0-0.2,0h0c-0.4,0-0.8-0.1-1.3-0.2c-0.1,0-0.2-0.1-0.3-0.3c0,0,0,0,0,0l0,0l-0.3-0.1c0.1-1.1,0.1-2.2-0.1-3.2
			c-0.3-1.1-0.7-2.1-1.3-3l0.2-0.2l0,0v0c0-0.1,0-0.3,0.1-0.3c0.3-0.3,0.7-0.5,1-0.7l0,0c0.1,0,0.1-0.1,0.2-0.1
			c0.1-0.1,0.3-0.1,0.4-0.2c0,0,0.1,0,0.1-0.1s0,0,0-0.1l0,0c0.3-0.3,0.4-0.7,0.1-1c-0.1-0.1-0.3-0.3-0.5-0.3
			c-0.2,0-0.4,0.1-0.5,0.2l0,0l0,0c0,0-0.1,0.1-0.1,0.1c-0.1,0.1-0.2,0.2-0.3,0.3c0,0.1-0.1,0.1-0.1,0.1l0,0
			c-0.3,0.3-0.6,0.6-0.9,0.8c-0.1,0-0.1,0.1-0.2,0.1c0,0-0.1,0-0.1,0h0l-0.3,0.2c-0.3-0.3-0.6-0.6-0.9-0.9c-1.4-1.1-3.1-1.7-4.8-1.9
			l0-0.3l0,0v0c-0.1-0.1-0.1-0.2-0.2-0.3c0-0.4,0-0.8,0.1-1.3v0c0-0.1,0-0.1,0-0.2c0-0.1,0-0.3,0.1-0.4v-0.2l0,0
			c0-0.4-0.3-0.7-0.6-0.8c-0.2,0-0.4,0.1-0.6,0.3c-0.1,0.1-0.2,0.3-0.2,0.5l0,0v0.2c0,0.1,0,0.3,0.1,0.4c0,0.1,0,0.1,0,0.2v0
			c0.1,0.4,0.1,0.8,0.1,1.3c0,0.1-0.1,0.2-0.2,0.3v0.1l0,0l0,0.3c-0.4,0-0.8,0.1-1.3,0.2c-1.7,0.4-3.3,1.3-4.5,2.6l-0.2-0.1h0
			c0,0-0.1,0-0.1,0c-0.1,0-0.1,0-0.2-0.1c-0.3-0.3-0.7-0.6-0.9-0.8l0,0c0-0.1-0.1-0.1-0.1-0.1c-0.1-0.1-0.2-0.2-0.3-0.3
			c0,0-0.1,0-0.1-0.1c0,0,0,0,0,0l0,0c-0.1-0.1-0.3-0.2-0.5-0.2c-0.2,0-0.4,0.1-0.5,0.3c-0.2,0.3-0.1,0.8,0.1,1l0,0c0,0,0,0,0,0
			s0.1,0.1,0.1,0.1c0.1,0.1,0.3,0.1,0.4,0.2c0.1,0,0.1,0.1,0.2,0.1l0,0c0.4,0.2,0.7,0.4,1,0.7c0.1,0.1,0.1,0.2,0.1,0.3v0l0,0
			l0.2,0.2c0,0.1-0.1,0.1-0.1,0.2c-1.1,1.8-1.6,3.9-1.3,6l-0.3,0.1l0,0c0,0,0,0,0,0c0,0.1-0.1,0.2-0.3,0.3c-0.4,0.1-0.8,0.2-1.3,0.2
			l0,0c-0.1,0-0.1,0-0.2,0c-0.1,0-0.3,0-0.4,0c0,0-0.1,0-0.1,0c0,0,0,0-0.1,0l0,0c-0.4,0.1-0.7,0.4-0.6,0.8l0,0
			c0.1,0.3,0.4,0.6,0.7,0.5c0.1,0,0.1,0,0.2,0l0,0c0,0,0,0,0,0s0.1,0,0.1,0c0.1,0,0.3-0.1,0.4-0.1c0.1,0,0.1-0.1,0.2-0.1h0
			c0.4-0.1,0.8-0.3,1.2-0.3h0c0.1,0,0.2,0,0.3,0.1c0,0,0,0,0,0l0,0l0.3,0c0.6,1.7,1.6,3.2,3,4.3c0.3,0.3,0.6,0.5,1,0.7l-0.2,0.3l0,0
			c0,0,0,0,0,0c0.1,0.1,0.1,0.3,0,0.4c-0.1,0.4-0.4,0.7-0.6,1.1v0c0,0.1-0.1,0.1-0.1,0.2c-0.1,0.1-0.1,0.2-0.3,0.4
			c0,0,0,0.1-0.1,0.1c0,0,0,0,0,0l0,0c-0.2,0.4,0,0.8,0.3,1c0.1,0,0.2,0.1,0.3,0.1c0.3,0,0.6-0.2,0.7-0.4l0,0c0,0,0,0,0,0
			c0,0,0-0.1,0.1-0.1c0-0.1,0.1-0.3,0.1-0.4l0.1-0.2l0,0c0.1-0.4,0.3-0.8,0.5-1.1c0.1-0.1,0.2-0.2,0.3-0.2c0,0,0,0,0,0l0,0l0.1-0.3
			c1,0.4,2.1,0.6,3.2,0.6c0.7,0,1.3-0.1,2-0.3c0.4-0.1,0.8-0.2,1.2-0.3l0.1,0.3l0,0c0,0,0,0,0,0c0.1,0,0.2,0.1,0.3,0.2
			c0.2,0.4,0.4,0.7,0.5,1.1v0l0.1,0.2c0,0.1,0.1,0.3,0.1,0.4c0,0,0,0.1,0.1,0.1c0,0,0,0,0,0l0,0c0.1,0.3,0.4,0.4,0.7,0.4
			c0.1,0,0.2,0,0.3-0.1c0.1-0.1,0.3-0.2,0.3-0.4c0-0.2,0-0.4,0-0.6l0,0c0,0,0,0,0,0c0,0,0-0.1-0.1-0.1c-0.1-0.1-0.1-0.3-0.3-0.4
			c0-0.1-0.1-0.1-0.1-0.2v-0.1c-0.3-0.3-0.4-0.7-0.6-1.1c0-0.1,0-0.3,0-0.4c0,0,0,0,0,0l0,0l-0.1-0.3c1.9-1.1,3.3-2.9,4-5l0.3,0l0,0
			c0,0,0,0,0,0c0.1-0.1,0.2-0.1,0.3-0.1h0c0.4,0.1,0.8,0.2,1.2,0.3h0c0.1,0,0.1,0.1,0.2,0.1c0.1,0.1,0.3,0.1,0.4,0.2
			c0,0,0.1,0,0.1,0c0,0,0,0,0.1,0l0,0c0.1,0,0.1,0,0.2,0c0.3,0,0.6-0.2,0.7-0.5C382.7,328.7,382.4,328.4,382.1,328.3z M371.4,327.2
			l-1,0.5l-1-0.5l-0.3-1.1l0.7-0.9h1.1l0.7,0.9L371.4,327.2z M377.4,324.8c0.2,0.8,0.2,1.5,0.1,2.3l-3.5-1l0,0
			c-0.3-0.1-0.5-0.4-0.4-0.7c0-0.1,0.1-0.2,0.1-0.3l2.8-2.5C377,323.3,377.3,324,377.4,324.8z M375.4,321.2l-3,2.1
			c-0.3,0.1-0.6,0.1-0.8-0.1c-0.1-0.1-0.1-0.1-0.1-0.3l-0.2-3.7C372.9,319.4,374.3,320.1,375.4,321.2L375.4,321.2z M368.8,319.4
			l0.7-0.1l-0.2,3.7l0,0c0,0.3-0.3,0.6-0.6,0.6c-0.1,0-0.2,0-0.3-0.1l-3.1-2.2C366.3,320.3,367.5,319.6,368.8,319.4z M364.3,322.6
			l2.7,2.4l0,0c0.3,0.2,0.3,0.6,0.1,0.8c-0.1,0.1-0.1,0.1-0.3,0.2l-3.6,1C363.1,325.5,363.5,324,364.3,322.6z M363.7,328.8l3.6-0.6
			c0.3,0,0.6,0.2,0.6,0.5c0,0.1,0,0.3,0,0.4l0,0l-1.4,3.4C365.2,331.6,364.2,330.3,363.7,328.8z M372,333.4c-0.5,0.1-1,0.2-1.6,0.2
			c-0.8,0-1.6-0.1-2.3-0.4l1.8-3.3c0.2-0.2,0.5-0.3,0.7-0.1c0.1,0.1,0.2,0.1,0.3,0.3l0,0l1.8,3.2C372.5,333.3,372.3,333.3,372,333.4
			z M376.5,330.2c-0.6,0.9-1.3,1.7-2.2,2.2l-1.4-3.5c-0.1-0.3,0.1-0.6,0.3-0.7c0.1,0,0.2-0.1,0.3-0.1l3.7,0.6
			C377,329.3,376.8,329.8,376.5,330.2z"/>
		<g id="layer1_1_">
			<g id="text4373_1_">
				<path id="path2985_1_" class="st2" d="M400.7,326.7c0.4-0.4,0.8-0.9,1.2-1.3c0.4-0.5,0.8-0.9,1.2-1.4c0.4-0.5,0.8-0.9,1.1-1.3
					s0.7-0.8,0.9-1.1h4.7c-1,1.1-1.9,2.1-2.8,3.1c-0.9,1-1.9,2-2.9,3.1c0.6,0.6,1.1,1.1,1.7,1.7c0.6,0.7,1.1,1.3,1.7,2.1
					c0.5,0.7,1,1.4,1.5,2.1c0.4,0.7,0.8,1.4,1.1,2h-4.6c-0.3-0.5-0.6-1-1-1.5c-0.4-0.6-0.8-1.1-1.1-1.7c-0.4-0.6-0.8-1.1-1.3-1.6
					c-0.4-0.5-0.8-0.9-1.3-1.3v6.2h-4v-20.2l4-0.6L400.7,326.7"/>
				<path id="path2987_1_" class="st2" d="M423.9,335.2c-0.8,0.2-1.7,0.4-2.6,0.5c-1.1,0.2-2.2,0.3-3.4,0.3c-1,0-2-0.1-3-0.5
					c-0.7-0.3-1.4-0.7-1.9-1.3c-0.5-0.6-0.8-1.3-1-2.1c-0.2-0.8-0.3-1.8-0.3-2.7v-7.8h4v7.3c0,1.3,0.2,2.2,0.5,2.8
					c0.3,0.6,1,0.8,1.9,0.8c0.3,0,0.6,0,0.9,0s0.6,0,0.8-0.1v-10.8h4V335.2"/>
				<path id="path2989_1_" class="st2" d="M436.6,328.6c0-2.6-1-3.8-2.8-3.8c-0.4,0-0.8,0-1.2,0.1c-0.3,0.1-0.7,0.2-1,0.4v7.2
					c0.2,0,0.4,0.1,0.7,0.1c0.3,0,0.6,0,1,0c1,0.1,1.9-0.3,2.5-1.1C436.4,330.7,436.7,329.6,436.6,328.6 M440.7,328.7
					c0,1-0.1,2.1-0.5,3.1c-0.3,0.9-0.8,1.7-1.4,2.3c-0.7,0.7-1.4,1.2-2.3,1.5c-1,0.4-2,0.5-3.1,0.5c-0.5,0-1,0-1.5-0.1
					s-1-0.1-1.5-0.1c-0.5-0.1-1-0.1-1.4-0.3c-0.5-0.1-0.9-0.2-1.2-0.3v-19.7l4-0.6v7c0.4-0.2,0.9-0.3,1.4-0.4c0.5-0.1,1-0.1,1.5-0.1
					c0.9,0,1.8,0.1,2.7,0.6c0.7,0.3,1.4,0.8,1.9,1.5c0.6,0.7,1,1.5,1.2,2.3C440.6,326.6,440.7,327.7,440.7,328.7"/>
				<path id="path2991_1_" class="st2" d="M443.1,328.8c0-1.1,0.2-2.2,0.6-3.2c0.3-0.9,0.8-1.7,1.5-2.4c0.6-0.6,1.3-1.1,2.1-1.4
					c0.8-0.3,1.7-0.5,2.5-0.5c2,0,3.6,0.6,4.7,1.8c1.1,1.2,1.7,3,1.7,5.3c0,0.2,0,0.5,0,0.8s0,0.5,0,0.7h-9c0.1,0.8,0.5,1.5,1.1,2
					c0.8,0.5,1.8,0.8,2.7,0.7c0.7,0,1.4-0.1,2.1-0.2c0.6-0.1,1.2-0.3,1.7-0.5l0.6,3.2c-0.3,0.1-0.6,0.2-0.8,0.3
					c-0.4,0.1-0.8,0.2-1.2,0.3c-0.4,0.1-0.9,0.1-1.4,0.2c-0.5,0-1,0.1-1.5,0.1c-1.1,0-2.2-0.1-3.3-0.6c-0.9-0.3-1.7-0.8-2.3-1.5
					c-0.6-0.7-1.1-1.5-1.4-2.3C443.2,330.7,443.1,329.8,443.1,328.8 M452.4,327.3c0-0.3-0.1-0.7-0.2-1c-0.1-0.3-0.3-0.6-0.4-0.8
					c-0.2-0.3-0.5-0.5-0.8-0.6c-0.4-0.2-0.7-0.3-1.1-0.3s-0.8,0.1-1.1,0.3c-0.3,0.1-0.6,0.3-0.8,0.6c-0.2,0.3-0.4,0.6-0.5,0.9
					c-0.1,0.3-0.2,0.7-0.2,1H452.4"/>
				<path id="path2993_1_" class="st2" d="M467.8,325.2c-0.4-0.1-0.8-0.2-1.3-0.3c-0.5-0.1-1-0.1-1.5-0.1c-0.3,0-0.6,0-0.9,0.1
					c-0.3,0-0.5,0.1-0.8,0.1v10.7h-4v-13.3c0.8-0.3,1.7-0.5,2.5-0.7c1.1-0.3,2.2-0.4,3.2-0.3c0.3,0,0.5,0,0.8,0c0.3,0,0.6,0,0.9,0.1
					c0.3,0,0.6,0.1,0.9,0.1c0.3,0,0.5,0.1,0.8,0.2L467.8,325.2"/>
				<path id="path2995_1_" class="st2" d="M470.6,322.1c0.8-0.2,1.7-0.4,2.6-0.6c1.1-0.2,2.2-0.3,3.4-0.3c1,0,2,0.1,2.9,0.5
					c0.7,0.3,1.4,0.7,1.9,1.3c0.5,0.6,0.8,1.3,1,2c0.2,0.8,0.3,1.7,0.3,2.6v7.9h-3.9v-7.4c0-1.3-0.2-2.2-0.5-2.7
					c-0.3-0.5-1-0.8-1.9-0.8c-0.3,0-0.6,0-0.9,0c-0.3,0-0.6,0-0.8,0.1v10.8h-4L470.6,322.1"/>
				<path id="path2997_1_" class="st2" d="M485.7,328.8c0-1.1,0.2-2.2,0.6-3.2c0.3-0.9,0.8-1.7,1.5-2.4c0.6-0.6,1.3-1.1,2.1-1.4
					c0.8-0.3,1.7-0.5,2.5-0.5c2,0,3.6,0.6,4.7,1.8c1.1,1.2,1.7,3,1.7,5.4c0,0.2,0,0.5,0,0.8s0,0.5,0,0.7h-9c0.1,0.8,0.5,1.5,1.1,2
					c0.8,0.5,1.8,0.8,2.7,0.7c0.7,0,1.4-0.1,2.1-0.2c0.6-0.1,1.2-0.3,1.8-0.6l0.6,3.2c-0.3,0.1-0.6,0.2-0.8,0.3
					c-0.4,0.1-0.8,0.2-1.2,0.3c-0.4,0.1-0.9,0.1-1.4,0.2c-0.5,0-1,0.1-1.5,0.1c-1.1,0-2.2-0.1-3.3-0.6c-0.9-0.3-1.7-0.8-2.3-1.5
					c-0.6-0.7-1.1-1.5-1.4-2.3C485.8,330.7,485.6,329.7,485.7,328.8 M495,327.3c0-0.3-0.1-0.7-0.2-1c-0.1-0.3-0.3-0.6-0.4-0.8
					c-0.2-0.3-0.5-0.5-0.8-0.6c-0.4-0.2-0.7-0.3-1.1-0.3c-0.4,0-0.8,0.1-1.1,0.3c-0.3,0.1-0.6,0.3-0.8,0.6c-0.2,0.3-0.4,0.6-0.5,0.9
					c-0.1,0.3-0.2,0.7-0.2,1H495"/>
				<path id="path2999_1_" class="st2" d="M501.8,318.1l4-0.6v4.1h4.8v3.3h-4.8v4.9c0,0.7,0.1,1.4,0.4,2c0.3,0.5,0.9,0.7,1.8,0.7
					c0.4,0,0.9,0,1.3-0.1c0.4-0.1,0.8-0.2,1.3-0.3l0.6,3.1c-0.5,0.2-1.1,0.4-1.6,0.5c-0.7,0.1-1.4,0.2-2.2,0.2
					c-0.9,0-1.8-0.1-2.7-0.4c-0.7-0.3-1.3-0.7-1.7-1.2c-0.4-0.6-0.7-1.2-0.9-1.9c-0.2-0.8-0.3-1.7-0.2-2.5V318.1"/>
				<path id="path3001_1_" class="st2" d="M512.6,328.8c0-1.1,0.2-2.2,0.6-3.2c0.3-0.9,0.8-1.7,1.5-2.4c0.6-0.6,1.3-1.1,2.1-1.4
					c0.8-0.3,1.7-0.5,2.5-0.5c2,0,3.6,0.6,4.7,1.8c1.1,1.2,1.7,3,1.7,5.4c0,0.2,0,0.5,0,0.8c0,0.3,0,0.5,0,0.7h-9
					c0.1,0.8,0.5,1.5,1.1,2c0.8,0.5,1.8,0.8,2.7,0.7c0.7,0,1.4-0.1,2.1-0.2c0.6-0.1,1.2-0.3,1.7-0.6l0.6,3.2
					c-0.3,0.1-0.6,0.2-0.8,0.3c-0.4,0.1-0.8,0.2-1.2,0.3c-0.4,0.1-0.9,0.1-1.4,0.2c-0.5,0-1,0.1-1.5,0.1c-1.1,0-2.2-0.1-3.3-0.6
					c-0.9-0.3-1.7-0.8-2.3-1.5c-0.6-0.7-1.1-1.5-1.4-2.3C512.7,330.7,512.6,329.7,512.6,328.8 M521.9,327.3c0-0.3-0.1-0.7-0.2-1
					c-0.1-0.3-0.3-0.6-0.4-0.8c-0.2-0.3-0.5-0.5-0.8-0.6c-0.4-0.2-0.7-0.3-1.1-0.3s-0.8,0.1-1.1,0.3c-0.3,0.1-0.6,0.3-0.8,0.6
					c-0.2,0.3-0.4,0.6-0.5,0.9c-0.1,0.3-0.2,0.7-0.2,1H521.9"/>
				<path id="path3003_1_" class="st2" d="M532.9,332.8c0.5,0,1.1,0,1.5-0.2c0.3-0.1,0.5-0.5,0.4-0.8c0-0.4-0.3-0.7-0.6-0.8
					c-0.6-0.3-1.2-0.6-1.8-0.8c-0.6-0.2-1.2-0.5-1.7-0.7c-0.5-0.2-0.9-0.5-1.3-0.9c-0.4-0.4-0.6-0.8-0.8-1.3
					c-0.2-0.6-0.3-1.1-0.3-1.7c0-1.2,0.5-2.4,1.5-3.1c1-0.8,2.3-1.1,4-1.1c0.8,0,1.7,0.1,2.5,0.3c0.6,0.1,1.3,0.3,1.9,0.5l-0.7,3.1
					c-0.5-0.2-1-0.3-1.5-0.4c-0.6-0.1-1.2-0.2-1.8-0.2c-1.3,0-1.9,0.3-1.9,1c0,0.1,0,0.3,0.1,0.4c0.1,0.1,0.2,0.3,0.3,0.4
					s0.4,0.2,0.6,0.4s0.6,0.3,1.1,0.4c0.7,0.3,1.5,0.6,2.1,1c0.5,0.3,1,0.6,1.3,1c0.3,0.3,0.6,0.7,0.7,1.2c0.1,0.5,0.2,1,0.2,1.5
					c0.1,1.3-0.5,2.5-1.6,3.2c-1,0.7-2.5,1.1-4.4,1.1c-1.1,0-2.1-0.1-3.1-0.3c-0.6-0.1-1.1-0.3-1.7-0.5l0.7-3.2
					c0.7,0.3,1.4,0.5,2.1,0.6C531.4,332.8,532.1,332.8,532.9,332.8"/>
			</g>
		</g>
	</g>
</g>
<g>
	<path class="st2" d="M383.9,426.9h11.9v2.1h-9.5v4.8h6.2v2.1h-6.2v5h9.6v2.1h-12V426.9z"/>
	<path class="st2" d="M398.1,431.3h2.3v1.2c0.9-0.9,2.2-1.4,3.5-1.4c2.7,0,4.6,1.9,4.6,4.6v7.4h-2.3v-7c0-1.8-1.1-3-2.9-3
		c-1.2,0-2.3,0.5-2.9,1.5v8.4h-2.3V431.3z"/>
	<path class="st2" d="M412.3,433.2h-2.5v-1.9h2.5v-3l2.3-0.6v3.5h3.5v1.9h-3.5v6.4c0,1.2,0.5,1.6,1.7,1.6c0.6,0,1.1-0.1,1.7-0.3v1.9
		c-0.7,0.2-1.4,0.3-2.2,0.3c-2.3,0-3.5-1.1-3.5-3.1V433.2z"/>
	<path class="st2" d="M424.8,431.1c3.2,0,5.7,2.7,5.7,6.1v0.7h-9.3c0.3,2,2,3.4,4,3.4c1.1,0,2.1-0.3,3-1l1.5,1.5
		c-1.3,1-2.9,1.6-4.5,1.6c-3.5,0-6.2-2.7-6.2-6.1C418.9,433.8,421.5,431.1,424.8,431.1z M421.2,436.2h7c-0.3-1.8-1.7-3.1-3.4-3.1
		C422.9,433,421.6,434.3,421.2,436.2L421.2,436.2z"/>
	<path class="st2" d="M432.6,431.3h2.3v1.5c0.7-1.1,1.9-1.7,3.2-1.7c0.4,0,0.8,0.1,1.2,0.2v2.1c-0.4-0.2-0.9-0.3-1.4-0.3
		c-1.2,0-2.4,0.6-3,2.1v7.9h-2.3V431.3z"/>
	<path class="st2" d="M441.2,431.3h2.3v1.1c1-0.8,2.3-1.3,3.6-1.3c3.3,0,5.9,2.7,5.9,6s-2.6,6.1-6,6.1c-1.3,0-2.5-0.4-3.5-1.2v5.7
		h-2.3L441.2,431.3z M443.5,434.5v5.3c0.8,0.9,2,1.4,3.2,1.4c2.3,0,4-1.8,4-4c0-2.3-1.8-4.1-4-4.1
		C445.4,433.1,444.3,433.6,443.5,434.5L443.5,434.5z"/>
	<path class="st2" d="M455.2,431.3h2.3v1.5c0.7-1.1,1.9-1.7,3.2-1.7c0.4,0,0.8,0.1,1.2,0.2v2.1c-0.4-0.2-0.9-0.3-1.4-0.3
		c-1.2,0-2.4,0.6-3,2.1v7.9h-2.3L455.2,431.3z"/>
	<path class="st2" d="M463.5,428c0-0.8,0.6-1.4,1.4-1.4c0.8,0,1.4,0.7,1.4,1.5c0,0.7-0.6,1.3-1.4,1.4
		C464.1,429.4,463.5,428.7,463.5,428z M466,443h-2.3v-11.7h2.3V443z"/>
	<path class="st2" d="M468.9,440c1.1,0.9,2.4,1.4,3.8,1.5c1.8,0,2.8-0.8,2.8-1.8c0-0.8-0.6-1.3-1.9-1.5l-2.1-0.3
		c-2.3-0.3-3.5-1.4-3.5-3.2c0-2.1,1.9-3.5,4.6-3.5c1.7,0,3.3,0.5,4.7,1.5l-1.2,1.5c-1.1-0.8-2.3-1.2-3.7-1.2c-1.4,0-2.4,0.6-2.4,1.6
		c0,0.9,0.6,1.3,1.9,1.5l2.1,0.3c2.4,0.3,3.5,1.5,3.5,3.3c0,2.1-2.1,3.7-4.9,3.7c-2,0-3.8-0.6-5.1-1.7L468.9,440z"/>
	<path class="st2" d="M484.9,431.1c3.2,0,5.7,2.7,5.7,6.1v0.7h-9.3c0.3,2,2,3.4,4,3.4c1.1,0,2.1-0.3,3-1l1.5,1.5
		c-1.3,1-2.9,1.6-4.5,1.6c-3.5,0-6.2-2.7-6.2-6.1C479,433.8,481.6,431.1,484.9,431.1z M481.3,436.2h7c-0.3-1.8-1.7-3.1-3.4-3.1
		C483.1,433,481.7,434.3,481.3,436.2L481.3,436.2z"/>
	<path class="st2" d="M497.9,426.9h2.4v14h9.3v2.1h-11.7V426.9z"/>
	<path class="st2" d="M511.4,428c0-0.8,0.6-1.4,1.4-1.4c0.8,0,1.4,0.7,1.4,1.5c0,0.7-0.6,1.3-1.4,1.4
		C512.1,429.4,511.5,428.7,511.4,428z M514,443h-2.3v-11.7h2.3V443z"/>
	<path class="st2" d="M516.7,431.3h2.3v1.2c0.9-0.9,2.2-1.4,3.5-1.4c2.7,0,4.6,1.9,4.6,4.6v7.4h-2.3v-7c0-1.8-1.1-3-2.9-3
		c-1.2,0-2.3,0.5-2.9,1.5v8.4h-2.3V431.3z"/>
	<path class="st2" d="M531.9,438.3c0,1.8,1.1,3,2.9,3c1.2,0,2.3-0.5,2.9-1.5v-8.4h2.3V443h-2.3v-1.2c-0.9,0.9-2.2,1.4-3.5,1.4
		c-2.7,0-4.6-1.9-4.6-4.6v-7.4h2.3V438.3z"/>
	<path class="st2" d="M546,437l-4.4-5.7h2.7l3,4l3-4h2.6l-4.3,5.7l4.6,6h-2.7l-3.2-4.3L544,443h-2.6L546,437z"/>
	<path class="st2" d="M396.6,462.8l1.6,1.6c-1.7,1.8-4,2.8-6.5,2.8c-4.8,0-8.5-3.7-8.5-8.3c0-4.7,3.7-8.3,8.5-8.3c2.5,0,5,1,6.5,2.8
		l-1.6,1.7c-1.2-1.4-3-2.2-4.9-2.2c-3.4,0-6,2.6-6,6.1s2.6,6.1,6.1,6.1C393.6,465,395.4,464.2,396.6,462.8z"/>
	<path class="st2" d="M405.4,455c3.4,0,6.1,2.7,6.1,6.1c0,3.4-2.7,6.1-6.1,6.1c-3.4,0-6.1-2.7-6.1-6.1c0,0,0,0,0,0
		c0-3.3,2.6-6,6-6.1C405.3,455,405.3,455,405.4,455z M405.4,457c-2.1,0-3.8,1.8-3.8,4.1c0,2.3,1.7,4.1,3.8,4.1s3.8-1.8,3.8-4.1
		C409.2,458.8,407.5,457,405.4,457z"/>
	<path class="st2" d="M413.6,455.2h2.3v1.5c0.7-1.1,1.9-1.7,3.2-1.7c0.4,0,0.8,0.1,1.2,0.2v2.1c-0.4-0.2-0.9-0.3-1.4-0.3
		c-1.2,0-2.4,0.6-3,2.1v7.9h-2.3V455.2z"/>
	<path class="st2" d="M426.8,455c3.2,0,5.7,2.7,5.7,6.1v0.7h-9.3c0.3,2,2,3.4,4,3.4c1.1,0,2.1-0.3,3-1l1.5,1.5
		c-1.3,1-2.9,1.6-4.5,1.6c-3.5,0-6.2-2.7-6.2-6.1C421,457.7,423.5,455,426.8,455z M423.3,460.1h7c-0.3-1.8-1.7-3.1-3.4-3.1
		C425,457,423.6,458.3,423.3,460.1z"/>
	<path class="st2" d="M442.7,467.2c-4.7,0-8.4-3.7-8.4-8.3c0-4.7,3.7-8.3,8.4-8.3s8.4,3.7,8.4,8.3
		C451.1,463.5,447.4,467.2,442.7,467.2z M442.7,452.8c-3.3,0-5.9,2.6-5.9,6.1s2.6,6.1,5.9,6.1c3.3,0,5.9-2.7,5.9-6.1
		S446,452.8,442.7,452.8z"/>
	<path class="st2" d="M453.7,462.6c1.7,1.7,3.5,2.5,5.6,2.5c2.4,0,3.9-1.1,3.9-2.7c0-1.4-0.9-2.1-3.3-2.5l-2.7-0.4
		c-3-0.5-4.4-1.9-4.4-4.2c0-2.8,2.3-4.6,5.9-4.6c2.3,0,4.6,0.8,6.5,2.2l-1.3,1.8c-1.8-1.3-3.5-2-5.3-2c-2.1,0-3.5,1-3.5,2.4
		c0,1.3,0.8,1.9,2.9,2.3l2.6,0.4c3.4,0.6,5,2,5,4.5c0,2.9-2.6,5-6.4,5c-2.6,0-5.1-1.1-6.9-2.9L453.7,462.6z"/>
	<path class="st2" d="M361.8,413.2c2.8,0,6.8-0.6,6.8-3.9c0-0.3,0-0.5-0.1-0.8l-1.7-7.2c-0.4-1.6-0.7-2.3-3.5-3.7
		c-2.2-1.1-6.8-2.9-8.2-2.9c-1.3,0-1.7,1.7-3.2,1.7c-1.5,0-2.6-1.2-4-1.2c-1.3,0-2.2,0.9-2.9,2.8c0,0-1.9,5.3-2.1,6
		c0,0.1-0.1,0.3-0.1,0.4C343,406.5,351.1,413.2,361.8,413.2 M369.1,410.7c0.4,1.8,0.4,2,0.4,2.2c0,3.1-3.5,4.8-8.1,4.8
		c-10.4,0-19.5-6.1-19.5-10.1c0-0.6,0.1-1.1,0.3-1.6c-3.7,0.2-8.6,0.9-8.6,5.1c0,7,16.5,15.6,29.6,15.6c10,0,12.6-4.5,12.6-8.1
		C375.9,415.8,373.4,412.6,369.1,410.7"/>
	<path class="st2" d="M462.1,415.3c0,2.6,1.6,3.9,4.5,3.9c0.9,0,1.8-0.1,2.6-0.4v-3.1c-0.6,0.2-1.1,0.3-1.7,0.3
		c-1.2,0-1.6-0.4-1.6-1.5v-4.7h3.4v-3.1h-3.4v-4l-3.8,0.8v3.2h-2.5v3.1h2.5L462.1,415.3z M450.3,415.3c0-0.8,0.8-1.2,2.1-1.2
		c0.8,0,1.5,0.1,2.2,0.3v1.6c-0.7,0.4-1.5,0.6-2.3,0.6C451.1,416.6,450.3,416.1,450.3,415.3 M451.5,419.2c1.3,0,2.4-0.3,3.4-1v0.7
		h3.7v-7.9c0-3-2-4.7-5.4-4.7c-1.9,0-3.8,0.4-5.8,1.4l1.4,2.8c1.4-0.6,2.7-1,3.7-1c1.6,0,2.4,0.6,2.4,1.8v0.6
		c-0.9-0.2-1.9-0.4-2.8-0.4c-3.2,0-5.1,1.3-5.1,3.7C447,417.6,448.7,419.2,451.5,419.2 M431,419h4v-6.4h6.7v6.4h4v-16.3h-4v6.3H435
		v-6.3h-4L431,419z M415.7,412.8c0-1.8,1.4-3.1,3.2-3.1c1,0,1.9,0.3,2.6,1v4.3c-0.7,0.7-1.6,1-2.6,1
		C417.1,415.9,415.7,414.6,415.7,412.8 M421.6,419h3.7v-17.1l-3.8,0.8v4.6c-1-0.5-2-0.8-3.1-0.8c-3.6,0-6.4,2.8-6.4,6.3
		c0,3.5,2.7,6.3,6.2,6.3c0,0,0.1,0,0.1,0c1.2,0,2.3-0.4,3.3-1.1V419z M404.5,409.5c1.2,0,2.2,0.8,2.6,2H402
		C402.3,410.3,403.3,409.5,404.5,409.5 M398.2,412.9c0,3.6,2.9,6.4,6.7,6.4c2.1,0,3.6-0.6,5.2-1.9l-2.5-2.2
		c-0.6,0.6-1.4,0.9-2.5,0.9c-1.3,0-2.5-0.7-3-2h8.8v-0.9c0-3.9-2.6-6.7-6.2-6.7c-3.5-0.1-6.4,2.7-6.4,6.2
		C398.2,412.8,398.2,412.8,398.2,412.9 M391.7,406.1c1.3,0,2.1,0.8,2.1,1.8c0,1-0.7,1.8-2.1,1.8h-4v-3.7H391.7z M383.7,419h4v-5.9
		h3.1l3.1,5.9h4.5l-3.6-6.5c1.9-0.8,3.1-2.6,3.1-4.6c0-2.9-2.3-5.2-5.8-5.2h-8.3L383.7,419z"/>
</g>
<g>
	<polyline class="st6" points="349.6,504.8 2.9,504.8 2.9,547.4 	"/>
	<polyline class="st6" points="543.8,504.8 890.4,504.8 890.4,547.4 	"/>
	<g>
		<path class="st0" d="M374.2,502.5h1.8l5.5,14h-1.7l-1.7-4.4H372l-1.7,4.4h-1.6L374.2,502.5z M377.7,510.9l-2.7-7l-2.6,7H377.7z"/>
		<path class="st0" d="M383.2,506.7h1.5v1.6c0.7-1.2,1.8-1.7,3.1-1.7c2.1,0,3.5,1.5,3.5,3.6v6.3h-1.5v-5.9c0-1.7-1-2.8-2.6-2.8
			c-1.1,0-2,0.5-2.6,1.5v7.2h-1.5V506.7z"/>
		<path class="st0" d="M396.6,516.5l-3.8-9.7h1.6l3,8l3.1-8h1.6l-4.8,11.8c-0.6,1.6-1.4,2.2-2.8,2.2c-0.3,0-0.6,0-0.9-0.1v-1.3
			c0.4,0.1,0.6,0.1,0.8,0.1c0.7,0,1.2-0.4,1.6-1.2L396.6,516.5z"/>
		<path class="st0" d="M408.3,503.3c0-0.6,0.5-1,1.1-1c0.6,0,1,0.5,1,1c0,0.6-0.5,1.1-1,1.1C408.8,504.3,408.3,503.9,408.3,503.3z
			 M410.1,516.5h-1.5v-9.8h1.5V516.5z"/>
		<path class="st0" d="M413.1,506.7h1.5v1.6c0.7-1.2,1.8-1.7,3.1-1.7c2.1,0,3.5,1.5,3.5,3.6v6.3h-1.5v-5.9c0-1.7-1-2.8-2.6-2.8
			c-1.1,0-2,0.5-2.6,1.5v7.2h-1.5V506.7z"/>
		<path class="st0" d="M425.1,506.7v-2.1c0-1.9,1-3,2.9-3c0.5,0,1,0.1,1.3,0.2v1.3c-0.4-0.1-0.7-0.2-1.2-0.2c-1.1,0-1.6,0.5-1.6,1.7
			v2.1h2.8v1.2h-2.8v8.6h-1.5v-8.6h-2.2v-1.2H425.1z"/>
		<path class="st0" d="M431.3,506.7h1.5v2c0.5-1.4,1.5-2.2,2.7-2.2c0.3,0,0.6,0,0.9,0.1v1.3c-0.3-0.1-0.7-0.2-1-0.2
			c-1.2,0-2.1,0.7-2.6,2v6.7h-1.5V506.7z"/>
		<path class="st0" d="M437.3,513.7c0-1.7,1.5-2.9,3.7-2.9c1.1,0,2.1,0.2,3,0.8v-1.3c0-1.6-0.9-2.4-2.5-2.4c-0.9,0-1.8,0.3-3,0.8
			l-0.5-1.1c1.3-0.6,2.5-0.9,3.7-0.9c2.4,0,3.8,1.2,3.8,3.4v6.5H444v-1.1c-0.9,0.9-1.9,1.3-3.1,1.3
			C438.8,516.7,437.3,515.5,437.3,513.7z M441.2,515.6c1.1,0,2-0.4,2.8-1.1v-1.9c-0.8-0.5-1.7-0.7-2.8-0.7c-1.5,0-2.5,0.7-2.5,1.8
			C438.7,514.8,439.7,515.6,441.2,515.6z"/>
		<path class="st0" d="M448.2,514.3c1.2,0.9,2.1,1.2,3.1,1.2c1.4,0,2.5-0.7,2.5-1.8c0-0.8-0.5-1.2-1.8-1.5l-1.6-0.3
			c-1.9-0.3-2.8-1.1-2.8-2.6c0-1.7,1.5-2.9,3.5-2.9c1.3,0,2.5,0.4,3.7,1.2l-0.7,1c-1-0.7-2-1-3.1-1c-1.3,0-2.1,0.6-2.1,1.6
			c0,0.8,0.4,1.2,1.7,1.4l1.6,0.3c2,0.4,2.8,1.2,2.8,2.6c0,1.7-1.6,3-3.8,3c-1.6,0-3-0.5-4-1.4L448.2,514.3z"/>
		<path class="st0" d="M458.4,507.9h-2v-1.2h2v-2.7l1.5-0.3v3h2.8v1.2h-2.8v6c0,1,0.4,1.5,1.4,1.5c0.5,0,0.8-0.1,1.4-0.3v1.3
			c-0.5,0.2-1.1,0.3-1.7,0.3c-1.7,0-2.6-0.8-2.6-2.4V507.9z"/>
		<path class="st0" d="M464.8,506.7h1.5v2c0.5-1.4,1.5-2.2,2.7-2.2c0.3,0,0.6,0,0.9,0.1v1.3c-0.3-0.1-0.7-0.2-1-0.2
			c-1.2,0-2.1,0.7-2.6,2v6.7h-1.5V506.7z"/>
		<path class="st0" d="M473.1,512.6c0,1.7,1,2.8,2.6,2.8c1.1,0,2-0.5,2.6-1.5v-7.2h1.5v9.8h-1.5v-1.6c-0.7,1.2-1.8,1.7-3.1,1.7
			c-2.1,0-3.5-1.5-3.5-3.6v-6.3h1.5V512.6z"/>
		<path class="st0" d="M489.9,514.2l0.9,0.9c-0.9,1-2.3,1.6-3.7,1.6c-2.7,0-4.8-2.2-4.8-5.1c0-2.8,2.1-5,4.8-5
			c1.4,0,2.8,0.6,3.8,1.5l-0.9,1c-0.7-0.8-1.7-1.2-2.8-1.2c-1.9,0-3.4,1.6-3.4,3.7c0,2.1,1.5,3.7,3.4,3.7
			C488.2,515.4,489.2,515,489.9,514.2z"/>
		<path class="st0" d="M494.2,507.9h-2v-1.2h2v-2.7l1.5-0.3v3h2.8v1.2h-2.8v6c0,1,0.4,1.5,1.4,1.5c0.5,0,0.8-0.1,1.4-0.3v1.3
			c-0.5,0.2-1.1,0.3-1.7,0.3c-1.7,0-2.6-0.8-2.6-2.4V507.9z"/>
		<path class="st0" d="M502.1,512.6c0,1.7,1,2.8,2.6,2.8c1.1,0,2-0.5,2.6-1.5v-7.2h1.5v9.8h-1.5v-1.6c-0.7,1.2-1.8,1.7-3.1,1.7
			c-2.1,0-3.5-1.5-3.5-3.6v-6.3h1.5V512.6z"/>
		<path class="st0" d="M511.7,506.7h1.5v2c0.5-1.4,1.5-2.2,2.7-2.2c0.3,0,0.6,0,0.9,0.1v1.3c-0.3-0.1-0.7-0.2-1-0.2
			c-1.2,0-2.1,0.7-2.6,2v6.7h-1.5V506.7z"/>
		<path class="st0" d="M522.5,516.7c-2.7,0-4.8-2.2-4.8-5.1c0-2.9,2-5,4.6-5c2.6,0,4.5,2.1,4.5,4.9v0.4h-7.7c0.1,2,1.6,3.5,3.5,3.5
			c1,0,2-0.4,2.7-1l0.9,1C525,516.3,523.9,516.7,522.5,516.7z M519.1,510.9h6.2c-0.2-1.8-1.5-3.1-3.1-3.1
			C520.6,507.8,519.4,509.1,519.1,510.9z"/>
	</g>
	<g>
		<g>
			<path class="st0" d="M785.4,609.4h5.8c2.7,0,4.5,1.6,4.5,4.1c0,2.5-1.7,4.1-4.5,4.1H787v5.7h-1.5V609.4z M787,610.7v5.6h4.1
				c1.9,0,3.1-1.1,3.1-2.8c0-1.7-1.2-2.8-3.1-2.8H787z"/>
			<path class="st0" d="M799.5,619.5c0,1.7,1,2.8,2.6,2.8c1.1,0,2-0.5,2.6-1.5v-7.2h1.5v9.8h-1.5v-1.6c-0.7,1.2-1.8,1.7-3.1,1.7
				c-2.1,0-3.5-1.5-3.5-3.6v-6.3h1.5V619.5z"/>
			<path class="st0" d="M813.6,623.5c-1.2,0-2.3-0.5-3.1-1.4v1.3h-1.4v-14.3l1.5-0.3v6.2c0.7-0.9,1.8-1.5,3.1-1.5
				c2.5,0,4.5,2.2,4.5,5C818.2,621.3,816.2,623.5,813.6,623.5z M810.5,616.1v4.8c0.6,0.9,1.7,1.4,2.8,1.4c2,0,3.4-1.6,3.4-3.7
				c0-2.1-1.5-3.7-3.4-3.7C812.2,614.8,811.2,615.2,810.5,616.1z"/>
			<path class="st0" d="M822.2,623.4h-1.5v-14.3l1.5-0.3V623.4z"/>
			<path class="st0" d="M824.9,610.1c0-0.6,0.5-1,1.1-1c0.6,0,1,0.5,1,1c0,0.6-0.5,1.1-1,1.1C825.3,611.2,824.9,610.7,824.9,610.1z
				 M826.7,623.4h-1.5v-9.8h1.5V623.4z"/>
			<path class="st0" d="M836.8,621.1l0.9,0.9c-0.9,1-2.3,1.6-3.7,1.6c-2.7,0-4.8-2.2-4.8-5.1c0-2.8,2.1-5,4.8-5
				c1.4,0,2.8,0.6,3.8,1.5l-0.9,1c-0.7-0.8-1.7-1.2-2.8-1.2c-1.9,0-3.4,1.6-3.4,3.7c0,2.1,1.5,3.7,3.4,3.7
				C835.2,622.2,836.2,621.8,836.8,621.1z"/>
		</g>
		<g>
			<path class="st7" d="M810.8,599c-13.5,0-24.5-11-24.5-24.5c0-13.5,11-24.5,24.5-24.5c13.5,0,24.5,11,24.5,24.5
				C835.3,588,824.3,599,810.8,599z"/>
			<path class="st8" d="M825.2,573.1c-1.2,0-2.3,0.7-2.8,1.7l-4.3-1.2c0-0.1,0-0.2,0-0.3c0-2.5-1.2-4.7-3-6.1l2.3-3.5
				c0.1,0,0.2,0,0.3,0c1.4,0,2.6-1.2,2.6-2.6c0-1.4-1.1-2.6-2.6-2.6c-1.4,0-2.6,1.1-2.6,2.6c0,0.8,0.3,1.4,0.9,1.9l-2.2,3.3
				c-1-0.5-2.2-0.8-3.5-0.8c-2.4,0-4.5,1.1-5.9,2.7l-3.2-2.6c0.2-0.4,0.4-0.9,0.4-1.5c0-1.8-1.4-3.2-3.2-3.2c-1.8,0-3.2,1.4-3.2,3.2
				c0,1.8,1.4,3.2,3.2,3.2c0.7,0,1.4-0.2,1.9-0.6l3.3,2.7c-0.6,1.1-1,2.4-1,3.8c0,1.9,0.7,3.6,1.7,4.9l-2.2,1.8
				c-0.4-0.3-1-0.5-1.5-0.5c-1.5,0-2.7,1.2-2.7,2.7c0,1.5,1.2,2.7,2.7,2.7c1.5,0,2.7-1.2,2.7-2.7c0-0.4-0.1-0.8-0.2-1.1l2.2-1.9
				c1.3,1.1,3.1,1.8,5,1.8c0.9,0,1.8-0.2,2.6-0.5l1.8,4.9c-1.4,0.7-2.3,2.2-2.3,3.8c0,2.4,2,4.4,4.4,4.4c2.4,0,4.4-2,4.4-4.4
				s-2-4.4-4.4-4.4c-0.2,0-0.4,0-0.7,0.1l-1.9-5c1.8-1.1,3.1-2.8,3.6-4.9l4.1,1.2c0,0,0,0.1,0,0.1c0,1.8,1.5,3.2,3.2,3.2
				c1.8,0,3.2-1.5,3.2-3.2C828.4,574.6,827,573.1,825.2,573.1z M817.7,560.1c0.6,0,1.1,0.5,1.1,1.1c0,0.6-0.5,1.1-1.1,1.1
				c-0.6,0-1.1-0.5-1.1-1.1C816.6,560.6,817.1,560.1,817.7,560.1z M798.3,565.9c-1,0-1.7-0.8-1.7-1.7c0-1,0.8-1.7,1.7-1.7
				c1,0,1.7,0.8,1.7,1.7C800.1,565.1,799.3,565.9,798.3,565.9z M800.6,583.5c-0.7,0-1.2-0.6-1.2-1.2s0.5-1.2,1.2-1.2
				c0.7,0,1.2,0.6,1.2,1.2C801.8,582.9,801.3,583.5,800.6,583.5z M816.8,586.4c1.6,0,2.9,1.3,2.9,2.9s-1.3,2.9-2.9,2.9
				c-1.6,0-2.9-1.3-2.9-2.9S815.2,586.4,816.8,586.4z M810.3,579.6c-3.5,0-6.3-2.8-6.3-6.3s2.8-6.3,6.3-6.3c3.5,0,6.3,2.8,6.3,6.3
				S813.7,579.6,810.3,579.6z M825.2,578.1c-1,0-1.8-0.8-1.8-1.8c0-1,0.8-1.8,1.8-1.8c1,0,1.8,0.8,1.8,1.8
				C826.9,577.3,826.1,578.1,825.2,578.1z"/>
			<path id="cloud_fill_2_" class="st9" d="M787.7,582.5h-6.2c-8.6,0-15.6-7-15.6-15.6c0-8,6-14.6,13.8-15.5
				c1.6-5.8,6.9-9.9,13.1-9.9c1.7,0,3.3,0.3,4.9,0.9c4.2-6.6,11.5-10.6,19.4-10.6c11.4,0,21,8.4,22.8,19.5
				c8.8-0.3,16.1,6.8,16.1,15.6c0,8.6-7,15.6-15.6,15.6h-6.1"/>
		</g>
	</g>
	<path class="st7" d="M568.1,599c-13.5,0-24.5-11-24.5-24.5s11-24.5,24.5-24.5s24.5,11,24.5,24.5C592.6,588,581.6,599,568.1,599z"/>
	<path class="st8" d="M580.7,564.3c-9.5-2.2-11.9-2.5-12.5-2.5c-0.1,0-0.1,0-0.1,0c-0.1,0-0.1,0-0.2,0c-0.6,0-3,0.2-12.5,2.5
		c-0.3,0.1-0.5,0.3-0.5,0.6l0,13.1c0,0.1,0.4,11.6,13,13.8c0,0,0.1,0,0.1,0l0.1,0c12.9-1.6,13-13.7,13-13.8V565
		C581.2,564.7,581,564.4,580.7,564.3z M568.2,563.2c0.3,0,2,0.1,10,1.9c0.5,0.1,1.1,0.3,1.7,0.4v12.6c0,0.1-0.2,11.1-11.8,12.6
		c-11.4-2.1-11.9-12.1-11.9-12.6v-12.6c1.2-0.3,2.2-0.5,3.1-0.7c6.6-1.5,8.2-1.6,8.5-1.6l0,0C568,563.2,568.1,563.2,568.2,563.2z"/>
	<path class="st8" d="M568,563.4L568,563.4L568,563.4L568,563.4z M568,563.4L568,563.4C568,563.3,568,563.3,568,563.4L568,563.4z
		 M567.2,566.5c-1,0.1-3.6,0.6-9.5,1.9c-0.2,0.1-0.4,0.3-0.4,0.5l0,9c0,1,0.6,9.4,10.7,11.3c0,0,0.1,0,0.1,0l0.1,0
		c7.1-1,9.5-5.7,10.2-8.5c0.4-1.5,0.4-2.7,0.5-2.8v-6.3l0.1-0.2l-0.1,0V569c0-0.2-0.2-0.5-0.4-0.5c-6.4-1.5-8.8-1.9-9.8-2l-0.6,0h0
		h0l-0.6,0C567.4,566.5,567.3,566.5,567.2,566.5z M577.8,573.3v4.7c0,0-0.1,2.9-1.4,4.9l-0.4,0.7c0,0-0.8,1.2-1.5,1.8l-0.5,0.5
		c-1.6,1.3-3.5,2.1-5.9,2.4c-1.6-0.3-3-0.8-4.2-1.5C571.2,581.5,575.6,576.3,577.8,573.3z M558.3,569.4l2.3-0.5
		c0.1,0,6.1-1.2,6.8-1.3l1.1,0c0.6,0.1,2,0.3,5.2,1c-1.7,2.5-6.3,8.2-14.2,13.8c-1.1-2.1-1.2-4-1.2-4.4l0-3.7L558.3,569.4z
		 M577.8,569.4v1.7l0,0.1c-1.2,1.9-5.8,8.4-15,14.9c-0.1,0-0.1-0.1-0.2-0.1l-0.6-0.5c-0.5-0.5-1-1-1.4-1.6l-0.3-0.4
		c8.8-6.2,13.5-12.6,14.9-14.6l0.2,0.1C576.1,569,576.9,569.2,577.8,569.4z"/>
	<path id="cloud_fill_3_" class="st9" d="M544,582.5h-5.2c-8.6,0-15.6-7-15.6-15.6c0-8,6-14.6,13.8-15.5c1.6-5.8,6.9-9.9,13.1-9.9
		c1.7,0,3.3,0.3,4.9,0.9c4.2-6.6,11.5-10.6,19.4-10.6c11.4,0,21,8.4,22.8,19.5c8.8-0.3,16.1,6.8,16.1,15.6c0,8.6-7,15.6-15.6,15.6
		h-5.9"/>
	<g>
		<path class="st0" d="M538.4,609.4h5.8c2.7,0,4.5,1.6,4.5,4.1c0,2.5-1.7,4.1-4.5,4.1H540v5.7h-1.5V609.4z M540,610.7v5.6h4.1
			c1.9,0,3.1-1.1,3.1-2.8c0-1.7-1.2-2.8-3.1-2.8H540z"/>
		<path class="st0" d="M551.2,613.6h1.5v2c0.5-1.4,1.5-2.2,2.7-2.2c0.3,0,0.6,0,0.9,0.1v1.3c-0.3-0.1-0.7-0.2-1-0.2
			c-1.2,0-2.1,0.7-2.6,2v6.7h-1.5V613.6z"/>
		<path class="st0" d="M558,610.1c0-0.6,0.5-1,1.1-1c0.6,0,1,0.5,1,1c0,0.6-0.5,1.1-1,1.1C558.4,611.2,558,610.7,558,610.1z
			 M559.7,623.4h-1.5v-9.8h1.5V623.4z"/>
		<path class="st0" d="M561.5,613.6h1.6l3.2,7.9l3.1-7.9h1.6l-4,9.8h-1.4L561.5,613.6z"/>
		<path class="st0" d="M572.2,620.6c0-1.7,1.5-2.9,3.7-2.9c1.1,0,2.1,0.2,3,0.8v-1.3c0-1.6-0.9-2.4-2.5-2.4c-0.9,0-1.8,0.3-3,0.8
			l-0.5-1.1c1.3-0.6,2.5-0.9,3.7-0.9c2.4,0,3.8,1.2,3.8,3.4v6.5h-1.4v-1.1c-0.9,0.9-1.9,1.3-3.1,1.3
			C573.7,623.5,572.2,622.3,572.2,620.6z M576.1,622.4c1.1,0,2-0.4,2.8-1.1v-1.9c-0.8-0.5-1.7-0.7-2.8-0.7c-1.5,0-2.5,0.7-2.5,1.8
			C573.6,621.7,574.6,622.4,576.1,622.4z"/>
		<path class="st0" d="M584.1,614.8h-2v-1.2h2v-2.7l1.5-0.3v3h2.8v1.2h-2.8v6c0,1,0.4,1.5,1.4,1.5c0.5,0,0.8-0.1,1.4-0.3v1.3
			c-0.5,0.2-1.1,0.3-1.7,0.3c-1.7,0-2.6-0.8-2.6-2.4V614.8z"/>
		<path class="st0" d="M594.7,623.5c-2.7,0-4.8-2.2-4.8-5.1c0-2.9,2-5,4.6-5c2.6,0,4.5,2.1,4.5,4.9v0.4h-7.7c0.1,2,1.6,3.5,3.5,3.5
			c1,0,2-0.4,2.7-1l0.9,1C597.2,623.1,596.1,623.5,594.7,623.5z M591.3,617.8h6.2c-0.2-1.8-1.5-3.1-3.1-3.1
			C592.8,614.7,591.6,616,591.3,617.8z"/>
	</g>
	<g>
		<g>
			<path class="st8" d="M286.3,557.3c0,0.1-0.1,0.2-0.1,0.3v0.3v21.8c0,0.7,0.6,1.3,1.3,1.3h75.9c0.7,0,1.3-0.6,1.3-1.3v-21.8v-0.3
				c0-0.1,0-0.2-0.1-0.3c0.2-0.6-0.1-1.2-0.7-1.5l-12.1-5.9c-0.2-0.1-0.4-0.1-0.6-0.1h-49.8c-0.2,0-0.4,0-0.5,0.1l-14,5.9
				C286.4,556,286.1,556.6,286.3,557.3z M301.8,552.3H351l8.1,4h-66.7L301.8,552.3z M288.8,559.3h73.2v19.2h-73.2
				C288.8,578.5,288.8,559.3,288.8,559.3z"/>
			<circle class="st8" cx="295.5" cy="568.8" r="1.8"/>
			<circle class="st8" cx="301.9" cy="568.8" r="1.8"/>
			<path class="st8" d="M357.8,562.7h-4c-0.4,0-0.7,0.3-0.7,0.7V574c0,0.4,0.3,0.7,0.7,0.7h4c0.4,0,0.7-0.3,0.7-0.7v-10.6
				C358.4,563,358.1,562.7,357.8,562.7z M357.1,573.3h-2.6v-9.2h2.6V573.3z"/>
			<path class="st8" d="M349.9,562.7h-4c-0.4,0-0.7,0.3-0.7,0.7V574c0,0.4,0.3,0.7,0.7,0.7h4c0.4,0,0.7-0.3,0.7-0.7v-10.6
				C350.5,563,350.2,562.7,349.9,562.7z M349.2,573.3h-2.6v-9.2h2.6V573.3z"/>
			<path class="st8" d="M327.3,584.9h-2.6c-0.5,0-1,0.4-1,1s0.4,1,1,1h2.6c0.5,0,1-0.4,1-1S327.8,584.9,327.3,584.9z"/>
			<path class="st8" d="M333.9,584.9h-2.6c-0.5,0-1,0.4-1,1s0.4,1,1,1h2.6c0.5,0,1-0.4,1-1S334.4,584.9,333.9,584.9z"/>
			<path class="st8" d="M282.9,552.9c-0.5-0.3-1.1-0.1-1.4,0.3c-0.5,0.9-0.9,1.9-1,2.9c-0.1,0.5,0.3,1,0.9,1.1c0,0,0.1,0,0.1,0
				c0.5,0,0.9-0.4,1-0.9c0.1-0.7,0.3-1.5,0.7-2.1C283.5,553.8,283.4,553.2,282.9,552.9z"/>
			<path class="st8" d="M307.4,584.9h-2.6c-0.5,0-1,0.4-1,1s0.4,1,1,1h2.6c0.5,0,1-0.4,1-1S308,584.9,307.4,584.9z"/>
			<path class="st8" d="M294.2,584.9h-2.6c-0.5,0-1,0.4-1,1s0.4,1,1,1h2.6c0.5,0,1-0.4,1-1S294.7,584.9,294.2,584.9z"/>
			<path class="st8" d="M287.5,584.9c-0.7,0-1.5-0.2-2.1-0.5c-0.5-0.2-1.1,0-1.3,0.5c-0.2,0.5,0,1.1,0.5,1.3c0.9,0.4,1.9,0.7,3,0.7
				h0.1c0.5,0,1-0.4,1-1C288.5,585.3,288.1,584.9,287.5,584.9z"/>
			<path class="st8" d="M340.5,584.9h-2.6c-0.5,0-1,0.4-1,1s0.4,1,1,1h2.6c0.5,0,1-0.4,1-1S341,584.9,340.5,584.9z"/>
			<path class="st8" d="M300.8,584.9h-2.6c-0.5,0-1,0.4-1,1s0.4,1,1,1h2.6c0.5,0,1-0.4,1-1S301.4,584.9,300.8,584.9z"/>
			<path class="st8" d="M314,584.9h-2.6c-0.5,0-1,0.4-1,1s0.4,1,1,1h2.6c0.5,0,1-0.4,1-1S314.6,584.9,314,584.9z"/>
			<path class="st8" d="M369.5,578.2c-0.5,0-1,0.4-1,1v0.6c0,0.6-0.1,1.1-0.3,1.7c-0.2,0.5,0.1,1.1,0.6,1.3c0.1,0,0.2,0.1,0.3,0.1
				c0.4,0,0.8-0.3,0.9-0.7c0.3-0.7,0.4-1.5,0.4-2.3v-0.6C370.5,578.6,370,578.2,369.5,578.2z"/>
			<path class="st8" d="M347.1,584.9h-2.6c-0.5,0-1,0.4-1,1s0.4,1,1,1h2.6c0.5,0,1-0.4,1-1S347.7,584.9,347.1,584.9z"/>
			<path class="st8" d="M369.5,564.9c-0.5,0-1,0.4-1,1v2.6c0,0.5,0.4,1,1,1s1-0.4,1-1v-2.6C370.5,565.4,370,564.9,369.5,564.9z"/>
			<path class="st8" d="M369.5,558.3c-0.5,0-1,0.4-1,1v2.6c0,0.5,0.4,1,1,1s1-0.4,1-1v-2.6C370.5,558.8,370,558.3,369.5,558.3z"/>
			<path class="st8" d="M369.5,571.6c-0.5,0-1,0.4-1,1v2.6c0,0.5,0.4,1,1,1s1-0.4,1-1v-2.6C370.5,572,370,571.6,369.5,571.6z"/>
			<path class="st8" d="M353.7,584.9h-2.6c-0.5,0-1,0.4-1,1s0.4,1,1,1h2.6c0.5,0,1-0.4,1-1S354.3,584.9,353.7,584.9z"/>
			<path class="st8" d="M360.3,584.9h-2.6c-0.5,0-1,0.4-1,1s0.4,1,1,1h2.6c0.5,0,1-0.4,1-1S360.9,584.9,360.3,584.9z"/>
			<path class="st8" d="M366.2,584c-0.6,0.4-1.3,0.7-2.1,0.8c-0.5,0.1-0.9,0.6-0.8,1.1c0.1,0.5,0.5,0.8,1,0.8c0,0,0.1,0,0.1,0
				c1-0.2,2-0.5,2.9-1.1c0.5-0.3,0.6-0.9,0.3-1.4C367.3,583.8,366.7,583.7,366.2,584z"/>
			<path class="st8" d="M320.7,584.9H318c-0.5,0-1,0.4-1,1s0.4,1,1,1h2.6c0.5,0,1-0.4,1-1S321.2,584.9,320.7,584.9z"/>
			<path class="st8" d="M330.4,545.9h2.6c0.5,0,1-0.4,1-1s-0.4-1-1-1h-2.6c-0.5,0-1,0.4-1,1S329.8,545.9,330.4,545.9z"/>
			<path class="st8" d="M343.6,545.9h2.6c0.5,0,1-0.4,1-1s-0.4-1-1-1h-2.6c-0.5,0-1,0.4-1,1S343.1,545.9,343.6,545.9z"/>
			<path class="st8" d="M317.2,545.9h2.6c0.5,0,1-0.4,1-1s-0.4-1-1-1h-2.6c-0.5,0-1,0.4-1,1S316.6,545.9,317.2,545.9z"/>
			<path class="st8" d="M323.8,545.9h2.6c0.5,0,1-0.4,1-1s-0.4-1-1-1h-2.6c-0.5,0-1,0.4-1,1S323.2,545.9,323.8,545.9z"/>
			<path class="st8" d="M337,545.9h2.6c0.5,0,1-0.4,1-1s-0.4-1-1-1H337c-0.5,0-1,0.4-1,1S336.5,545.9,337,545.9z"/>
			<path class="st8" d="M362,550.6l2.4,1.2c0.1,0.1,0.3,0.1,0.4,0.1c0.4,0,0.7-0.2,0.9-0.6c0.2-0.5,0-1.1-0.5-1.3l-2.4-1.2
				c-0.5-0.2-1.1,0-1.3,0.5C361.3,549.7,361.5,550.3,362,550.6z"/>
			<path class="st8" d="M350.2,545.9h1c0.4,0,0.9,0.1,1.3,0.2c0.1,0,0.2,0,0.3,0c0.4,0,0.8-0.3,1-0.7c0.1-0.5-0.2-1.1-0.7-1.2
				c-0.6-0.2-1.2-0.2-1.8-0.2h-1c-0.5,0-1,0.4-1,1S349.7,545.9,350.2,545.9z"/>
			<path class="st8" d="M368.3,555.6c0.1,0.4,0.5,0.7,1,0.7c0.1,0,0.2,0,0.3,0c0.5-0.1,0.8-0.7,0.7-1.2c-0.3-1-0.7-1.9-1.4-2.7
				c-0.4-0.4-1-0.5-1.4-0.1c-0.4,0.3-0.5,1-0.1,1.4C367.8,554.2,368.1,554.9,368.3,555.6z"/>
			<path class="st8" d="M356,547.7l2.4,1.2c0.1,0.1,0.3,0.1,0.4,0.1c0.4,0,0.7-0.2,0.9-0.6c0.2-0.5,0-1.1-0.5-1.3l-2.4-1.2
				c-0.5-0.2-1.1,0-1.3,0.5C355.3,546.8,355.5,547.4,356,547.7z"/>
			<path class="st8" d="M281.5,570.5c0.5,0,1-0.4,1-1v-2.6c0-0.5-0.4-1-1-1c-0.5,0-1,0.4-1,1v2.6C280.5,570,280.9,570.5,281.5,570.5
				z"/>
			<path class="st8" d="M285.4,552.2c0.1,0,0.3,0,0.4-0.1l2.4-1c0.5-0.2,0.7-0.8,0.5-1.3c-0.2-0.5-0.8-0.7-1.3-0.5l-2.4,1
				c-0.5,0.2-0.7,0.8-0.5,1.3C284.6,552,285,552.2,285.4,552.2z"/>
			<path class="st8" d="M281.5,563.8c0.5,0,1-0.4,1-1v-2.6c0-0.5-0.4-1-1-1c-0.5,0-1,0.4-1,1v2.6
				C280.5,563.4,280.9,563.8,281.5,563.8z"/>
			<path class="st8" d="M282.5,580c0-0.5-0.5-1-1-0.9c-0.5,0-1,0.5-0.9,1c0,1,0.3,2,0.8,2.9c0.2,0.3,0.5,0.5,0.9,0.5
				c0.2,0,0.3,0,0.5-0.1c0.5-0.3,0.7-0.9,0.4-1.3C282.7,581.5,282.5,580.7,282.5,580z"/>
			<path class="st8" d="M281.5,577.1c0.5,0,1-0.4,1-1v-2.6c0-0.5-0.4-1-1-1c-0.5,0-1,0.4-1,1v2.6
				C280.5,576.6,280.9,577.1,281.5,577.1z"/>
			<path class="st8" d="M297.5,547.1c0.1,0,0.3,0,0.4-0.1l1.6-0.7c0.2-0.1,0.5-0.2,0.7-0.2c0.5-0.1,0.8-0.7,0.7-1.2
				c-0.1-0.5-0.7-0.8-1.2-0.7c-0.3,0.1-0.7,0.2-1,0.3l-1.6,0.7c-0.5,0.2-0.7,0.8-0.5,1.3C296.8,546.8,297.1,547.1,297.5,547.1z"/>
			<path class="st8" d="M303.9,545.9h2.6c0.5,0,1-0.4,1-1s-0.4-1-1-1h-2.6c-0.5,0-1,0.4-1,1S303.4,545.9,303.9,545.9z"/>
			<path class="st8" d="M310.6,545.9h2.6c0.5,0,1-0.4,1-1s-0.4-1-1-1h-2.6c-0.5,0-1,0.4-1,1S310,545.9,310.6,545.9z"/>
			<path class="st8" d="M291.4,549.7c0.1,0,0.3,0,0.4-0.1l2.4-1c0.5-0.2,0.7-0.8,0.5-1.3c-0.2-0.5-0.8-0.7-1.3-0.5l-2.4,1
				c-0.5,0.2-0.7,0.8-0.5,1.3C290.7,549.4,291.1,549.7,291.4,549.7z"/>
		</g>
		<g>
			<path class="st0" d="M296.4,609.4h1.6l4.8,12.5l4.8-12.5h1.6l-5.5,14h-1.8L296.4,609.4z"/>
			<path class="st0" d="M310.6,610.1c0-0.6,0.5-1,1.1-1c0.6,0,1,0.5,1,1c0,0.6-0.5,1.1-1,1.1C311.1,611.2,310.6,610.7,310.6,610.1z
				 M312.4,623.4h-1.5v-9.8h1.5V623.4z"/>
			<path class="st0" d="M315.4,613.6h1.5v2c0.5-1.4,1.5-2.2,2.7-2.2c0.3,0,0.6,0,0.9,0.1v1.3c-0.3-0.1-0.7-0.2-1-0.2
				c-1.2,0-2.1,0.7-2.6,2v6.7h-1.5V613.6z"/>
			<path class="st0" d="M323.6,614.8h-2v-1.2h2v-2.7l1.5-0.3v3h2.8v1.2h-2.8v6c0,1,0.4,1.5,1.4,1.5c0.5,0,0.8-0.1,1.4-0.3v1.3
				c-0.5,0.2-1.1,0.3-1.7,0.3c-1.7,0-2.6-0.8-2.6-2.4V614.8z"/>
			<path class="st0" d="M331.5,619.5c0,1.7,1,2.8,2.6,2.8c1.1,0,2-0.5,2.6-1.5v-7.2h1.5v9.8h-1.5v-1.6c-0.7,1.2-1.8,1.7-3.1,1.7
				c-2.1,0-3.5-1.5-3.5-3.6v-6.3h1.5V619.5z"/>
			<path class="st0" d="M340.6,620.6c0-1.7,1.5-2.9,3.7-2.9c1.1,0,2.1,0.2,3,0.8v-1.3c0-1.6-0.9-2.4-2.5-2.4c-0.9,0-1.8,0.3-3,0.8
				l-0.5-1.1c1.3-0.6,2.5-0.9,3.7-0.9c2.4,0,3.8,1.2,3.8,3.4v6.5h-1.4v-1.1c-0.9,0.9-1.9,1.3-3.1,1.3
				C342,623.5,340.6,622.3,340.6,620.6z M344.4,622.4c1.1,0,2-0.4,2.8-1.1v-1.9c-0.8-0.5-1.7-0.7-2.8-0.7c-1.5,0-2.5,0.7-2.5,1.8
				C342,621.7,342.9,622.4,344.4,622.4z"/>
			<path class="st0" d="M353.1,623.4h-1.5v-14.3l1.5-0.3V623.4z"/>
		</g>
	</g>
	<g>
		<g>
			<g>
				<path class="st8" d="M128.1,556c0.2-0.7-0.1-1.4-0.8-1.8l-14-6.9c-0.2-0.1-0.4-0.2-0.7-0.2H55.1c-0.2,0-0.4,0-0.6,0.1l-16.1,6.9
					c-0.7,0.3-1,1.1-0.8,1.8c0,0.1-0.1,0.3-0.1,0.4v0.4V582c0,0.8,0.7,1.5,1.5,1.5h87.8c0.8,0,1.5-0.7,1.5-1.5v-25.3v-0.4
					C128.2,556.2,128.1,556.1,128.1,556z M55.4,550.3h56.9l9.4,4.6H44.5L55.4,550.3z M125.1,580.5H40.4v-22.2h84.7V580.5z"/>
				<circle class="st8" cx="48.1" cy="569.3" r="2.1"/>
				<circle class="st8" cx="55.6" cy="569.3" r="2.1"/>
				<path class="st8" d="M120.9,575.3c0,0.4-0.3,0.8-0.8,0.8h-4.6c-0.4,0-0.8-0.3-0.8-0.8v-12.2c0-0.4,0.3-0.8,0.8-0.8h4.6
					c0.4,0,0.8,0.3,0.8,0.8V575.3z M116.3,574.5h3.1v-10.7h-3.1V574.5z"/>
				<path class="st8" d="M111.8,575.3c0,0.4-0.3,0.8-0.8,0.8h-4.6c-0.4,0-0.8-0.3-0.8-0.8v-12.2c0-0.4,0.3-0.8,0.8-0.8h4.6
					c0.4,0,0.8,0.3,0.8,0.8V575.3z M107.2,574.5h3.1v-10.7h-3.1V574.5z"/>
			</g>
		</g>
		<g>
			<path class="st0" d="M48.4,609.4h5.8c2.7,0,4.5,1.6,4.5,4.1c0,2.5-1.7,4.1-4.5,4.1H50v5.7h-1.5V609.4z M50,610.7v5.6H54
				c1.9,0,3.1-1.1,3.1-2.8c0-1.7-1.2-2.8-3.1-2.8H50z"/>
			<path class="st0" d="M61.2,609.1l1.5-0.3v6.4c0.7-1.2,1.8-1.7,3.1-1.7c2.1,0,3.5,1.5,3.5,3.6v6.3h-1.5v-5.9c0-1.7-1-2.8-2.6-2.8
				c-1.1,0-2,0.5-2.6,1.5v7.2h-1.5V609.1z"/>
			<path class="st0" d="M74.6,623.3l-3.8-9.7h1.6l3,8l3.1-8h1.6l-4.8,11.8c-0.6,1.6-1.4,2.2-2.8,2.2c-0.3,0-0.6,0-0.9-0.1v-1.3
				c0.4,0.1,0.6,0.1,0.8,0.1c0.7,0,1.2-0.4,1.6-1.2L74.6,623.3z"/>
			<path class="st0" d="M81.9,621.1c1.2,0.9,2.1,1.2,3.1,1.2c1.4,0,2.5-0.7,2.5-1.8c0-0.8-0.5-1.2-1.8-1.5l-1.6-0.3
				c-1.9-0.3-2.8-1.1-2.8-2.6c0-1.7,1.5-2.9,3.5-2.9c1.3,0,2.5,0.4,3.7,1.2l-0.7,1c-1-0.7-2-1-3.1-1c-1.3,0-2.1,0.6-2.1,1.6
				c0,0.8,0.4,1.2,1.7,1.4l1.6,0.3c2,0.4,2.8,1.2,2.8,2.6c0,1.7-1.6,3-3.8,3c-1.6,0-3-0.5-4-1.4L81.9,621.1z"/>
			<path class="st0" d="M90.7,610.1c0-0.6,0.5-1,1.1-1c0.6,0,1,0.5,1,1c0,0.6-0.5,1.1-1,1.1C91.2,611.2,90.7,610.7,90.7,610.1z
				 M92.5,623.4h-1.5v-9.8h1.5V623.4z"/>
			<path class="st0" d="M102.7,621.1l0.9,0.9c-0.9,1-2.3,1.6-3.7,1.6c-2.7,0-4.8-2.2-4.8-5.1c0-2.8,2.1-5,4.8-5
				c1.4,0,2.8,0.6,3.8,1.5l-0.9,1c-0.7-0.8-1.7-1.2-2.8-1.2c-1.9,0-3.4,1.6-3.4,3.7c0,2.1,1.5,3.7,3.4,3.7
				C101,622.2,102,621.8,102.7,621.1z"/>
			<path class="st0" d="M105.2,620.6c0-1.7,1.5-2.9,3.7-2.9c1.1,0,2.1,0.2,3,0.8v-1.3c0-1.6-0.9-2.4-2.5-2.4c-0.9,0-1.8,0.3-3,0.8
				l-0.5-1.1c1.3-0.6,2.5-0.9,3.7-0.9c2.4,0,3.8,1.2,3.8,3.4v6.5h-1.4v-1.1c-0.9,0.9-1.9,1.3-3.1,1.3
				C106.6,623.5,105.2,622.3,105.2,620.6z M109,622.4c1.1,0,2-0.4,2.8-1.1v-1.9c-0.8-0.5-1.7-0.7-2.8-0.7c-1.5,0-2.5,0.7-2.5,1.8
				C106.6,621.7,107.6,622.4,109,622.4z"/>
			<path class="st0" d="M117.7,623.4h-1.5v-14.3l1.5-0.3V623.4z"/>
		</g>
	</g>
</g>
<g>
	<path class="st0" d="M25,2.7c2.7,0,4.5,1.5,4.5,3.7c0,1.3-0.7,2.4-1.9,3c1.5,0.6,2.5,1.8,2.5,3.3c0,2.4-1.9,4-4.8,4H19v-14H25z
		 M21.1,4.4v4.2h3.8c1.6,0,2.6-0.8,2.6-2.1s-1-2.1-2.6-2.1H21.1z M28,12.6c0-1.4-1.1-2.3-2.9-2.3h-4.1v4.6h4.1
		C26.9,14.9,28,14,28,12.6z"/>
	<path class="st0" d="M37,16.8c-3,0-5.3-2.3-5.3-5.3c0-2.9,2.2-5.2,5.1-5.2c2.8,0,4.9,2.3,4.9,5.3v0.6h-8c0.3,1.7,1.7,2.9,3.4,2.9
		c1,0,1.9-0.3,2.6-0.9l1.3,1.3C39.8,16.4,38.5,16.8,37,16.8z M33.7,10.7h6c-0.3-1.6-1.5-2.7-3-2.7C35.2,8,34,9.1,33.7,10.7z"/>
	<path class="st0" d="M43.8,14c1.1,0.8,2.2,1.3,3.3,1.3c1.4,0,2.4-0.6,2.4-1.5c0-0.7-0.5-1.1-1.6-1.3l-1.8-0.3c-2-0.3-3-1.2-3-2.8
		c0-1.8,1.6-3.1,4-3.1c1.5,0,2.8,0.4,4.1,1.3l-1,1.3C49,8.2,48,7.9,46.9,7.9c-1.2,0-2,0.6-2,1.4c0,0.7,0.5,1.1,1.7,1.3l1.8,0.3
		c2,0.3,3.1,1.3,3.1,2.8c0,1.8-1.8,3.2-4.3,3.2c-1.8,0-3.3-0.5-4.5-1.5L43.8,14z"/>
	<path class="st0" d="M54.1,8.2H52V6.5h2.2V3.9l2-0.5v3.1h3v1.7h-3v5.5c0,1,0.4,1.4,1.5,1.4c0.6,0,1-0.1,1.5-0.2v1.7
		c-0.5,0.2-1.3,0.3-1.9,0.3c-2,0-3-0.9-3-2.7V8.2z"/>
	<path class="st0" d="M65,2.7h2.1v14H65V2.7z"/>
	<path class="st0" d="M68.9,2.7h11.9v1.9h-4.9v12.1h-2.1V4.5h-4.9V2.7z"/>
	<path class="st0" d="M91.4,6.3c3,0,5.3,2.3,5.3,5.3c0,3-2.3,5.3-5.3,5.3c-3,0-5.3-2.3-5.3-5.3C86.1,8.6,88.4,6.3,91.4,6.3z
		 M94.7,11.6c0-2-1.5-3.5-3.3-3.5C89.5,8,88,9.6,88,11.6s1.5,3.5,3.3,3.5C93.2,15.1,94.7,13.5,94.7,11.6z"/>
	<path class="st0" d="M98.5,6.5h2v1c0.8-0.7,1.9-1.1,3.1-1.1c2.9,0,5.1,2.3,5.1,5.2c0,3-2.3,5.3-5.2,5.3c-1.1,0-2.2-0.4-3.1-1v5h-2
		V6.5z M100.5,9.3v4.6c0.6,0.7,1.7,1.2,2.8,1.2c2,0,3.4-1.5,3.4-3.5s-1.5-3.5-3.4-3.5C102.2,8.1,101.2,8.5,100.5,9.3z"/>
	<path class="st0" d="M110.8,14c1.1,0.8,2.2,1.3,3.3,1.3c1.4,0,2.4-0.6,2.4-1.5c0-0.7-0.5-1.1-1.6-1.3l-1.8-0.3c-2-0.3-3-1.2-3-2.8
		c0-1.8,1.6-3.1,4-3.1c1.5,0,2.8,0.4,4.1,1.3l-1,1.3c-1.1-0.7-2.1-1.1-3.2-1.1c-1.2,0-2,0.6-2,1.4c0,0.7,0.5,1.1,1.7,1.3l1.8,0.3
		c2,0.3,3.1,1.3,3.1,2.8c0,1.8-1.8,3.2-4.3,3.2c-1.8,0-3.3-0.5-4.5-1.5L110.8,14z"/>
	<path class="st0" d="M129,16.8c-3,0-5.3-2.3-5.3-5.3c0-2.9,2.2-5.2,5.1-5.2c2.8,0,4.9,2.3,4.9,5.3v0.6h-8c0.3,1.7,1.7,2.9,3.4,2.9
		c1,0,1.9-0.3,2.6-0.9l1.3,1.3C131.8,16.4,130.6,16.8,129,16.8z M125.7,10.7h6c-0.3-1.6-1.5-2.7-3-2.7C127.2,8,126,9.1,125.7,10.7z"
		/>
	<path class="st0" d="M137.7,11.4l-3.8-5h2.3l2.6,3.5l2.6-3.5h2.3l-3.8,4.9l4,5.2h-2.4l-2.8-3.8l-2.8,3.8h-2.3L137.7,11.4z"/>
	<path class="st0" d="M145.2,6.5h2v1c0.8-0.7,1.9-1.1,3.1-1.1c2.9,0,5.1,2.3,5.1,5.2c0,3-2.3,5.3-5.2,5.3c-1.1,0-2.2-0.4-3.1-1v5h-2
		V6.5z M147.2,9.3v4.6c0.6,0.7,1.7,1.2,2.8,1.2c2,0,3.4-1.5,3.4-3.5s-1.5-3.5-3.4-3.5C148.9,8.1,147.9,8.5,147.2,9.3z"/>
	<path class="st0" d="M162.3,16.8c-3,0-5.3-2.3-5.3-5.3c0-2.9,2.2-5.2,5.1-5.2c2.8,0,4.9,2.3,4.9,5.3v0.6h-8
		c0.3,1.7,1.7,2.9,3.4,2.9c1,0,1.9-0.3,2.6-0.9l1.3,1.3C165,16.4,163.8,16.8,162.3,16.8z M158.9,10.7h6c-0.3-1.6-1.5-2.7-3-2.7
		C160.5,8,159.2,9.1,158.9,10.7z"/>
	<path class="st0" d="M168.9,6.5h2v1.3c0.6-1,1.6-1.5,2.8-1.5c0.4,0,0.7,0,1,0.2v1.8c-0.4-0.1-0.8-0.2-1.2-0.2
		c-1.2,0-2.1,0.6-2.6,1.9v6.8h-2V6.5z"/>
	<path class="st0" d="M176.1,3.6c0-0.7,0.5-1.2,1.2-1.2s1.2,0.6,1.2,1.2s-0.6,1.2-1.2,1.2S176.1,4.3,176.1,3.6z M178.3,16.7h-2V6.5
		h2V16.7z"/>
	<path class="st0" d="M185.5,16.8c-3,0-5.3-2.3-5.3-5.3c0-2.9,2.2-5.2,5.1-5.2c2.8,0,4.9,2.3,4.9,5.3v0.6h-8
		c0.3,1.7,1.7,2.9,3.4,2.9c1,0,1.9-0.3,2.6-0.9l1.3,1.3C188.3,16.4,187,16.8,185.5,16.8z M182.2,10.7h6c-0.3-1.6-1.5-2.7-3-2.7
		C183.7,8,182.5,9.1,182.2,10.7z"/>
	<path class="st0" d="M192.1,6.5h2v1c0.8-0.8,1.8-1.2,3.1-1.2c2.3,0,4,1.6,4,4v6.4h-2v-6.1c0-1.6-1-2.6-2.5-2.6
		c-1.1,0-2,0.5-2.5,1.3v7.3h-2V6.5z"/>
	<path class="st0" d="M211,13.8l1.2,1.3c-1.1,1.1-2.5,1.7-4,1.7c-2.9,0-5.2-2.3-5.2-5.3c0-3,2.3-5.3,5.2-5.3c1.5,0,3,0.6,4.1,1.7
		l-1.3,1.4c-0.8-0.8-1.8-1.3-2.8-1.3c-1.9,0-3.3,1.5-3.3,3.5c0,2,1.5,3.5,3.3,3.5C209.3,15.1,210.2,14.7,211,13.8z"/>
	<path class="st0" d="M218.3,16.8c-3,0-5.3-2.3-5.3-5.3c0-2.9,2.2-5.2,5.1-5.2c2.8,0,4.9,2.3,4.9,5.3v0.6h-8
		c0.3,1.7,1.7,2.9,3.4,2.9c1,0,1.9-0.3,2.6-0.9l1.3,1.3C221.1,16.4,219.9,16.8,218.3,16.8z M215,10.7h6c-0.3-1.6-1.5-2.7-3-2.7
		C216.5,8,215.3,9.1,215,10.7z"/>
</g>
<g>
	<path class="st0" d="M635,2.7c2.7,0,4.5,1.5,4.5,3.7c0,1.3-0.7,2.4-1.9,3c1.5,0.6,2.5,1.8,2.5,3.3c0,2.4-1.9,4-4.8,4H629v-14H635z
		 M631.1,4.4v4.2h3.8c1.6,0,2.6-0.8,2.6-2.1s-1-2.1-2.6-2.1H631.1z M638,12.6c0-1.4-1.1-2.3-2.9-2.3h-4.1v4.6h4.1
		C636.9,14.9,638,14,638,12.6z"/>
	<path class="st0" d="M647,16.8c-3,0-5.3-2.3-5.3-5.3c0-2.9,2.2-5.2,5.1-5.2c2.8,0,4.9,2.3,4.9,5.3v0.6h-8c0.3,1.7,1.7,2.9,3.4,2.9
		c1,0,1.9-0.3,2.6-0.9l1.3,1.3C649.8,16.4,648.5,16.8,647,16.8z M643.7,10.7h6c-0.3-1.6-1.5-2.7-3-2.7C645.2,8,644,9.1,643.7,10.7z"
		/>
	<path class="st0" d="M653.8,14c1.1,0.8,2.2,1.3,3.3,1.3c1.4,0,2.4-0.6,2.4-1.5c0-0.7-0.5-1.1-1.6-1.3l-1.8-0.3c-2-0.3-3-1.2-3-2.8
		c0-1.8,1.6-3.1,4-3.1c1.5,0,2.8,0.4,4.1,1.3l-1,1.3c-1.1-0.7-2.1-1.1-3.2-1.1c-1.2,0-2,0.6-2,1.4c0,0.7,0.5,1.1,1.7,1.3l1.8,0.3
		c2,0.3,3.1,1.3,3.1,2.8c0,1.8-1.8,3.2-4.3,3.2c-1.8,0-3.3-0.5-4.5-1.5L653.8,14z"/>
	<path class="st0" d="M664.1,8.2H662V6.5h2.2V3.9l2-0.5v3.1h3v1.7h-3v5.5c0,1,0.4,1.4,1.5,1.4c0.6,0,1-0.1,1.5-0.2v1.7
		c-0.5,0.2-1.3,0.3-1.9,0.3c-2,0-3-0.9-3-2.7V8.2z"/>
	<path class="st0" d="M682.6,15.7c-0.9,0.7-1.9,1.1-3.1,1.1c-2.9,0-5.1-2.3-5.1-5.3c0-2.9,2.3-5.2,5.2-5.2c1.1,0,2.2,0.4,3.1,1V2.7
		l2-0.4v14.4h-2V15.7z M679.7,15.1c1.1,0,2.1-0.4,2.8-1.2V9.2c-0.7-0.8-1.7-1.2-2.8-1.2c-2,0-3.5,1.5-3.5,3.5S677.8,15.1,679.7,15.1
		z"/>
	<path class="st0" d="M691.8,16.8c-3,0-5.3-2.3-5.3-5.3c0-2.9,2.2-5.2,5.1-5.2c2.8,0,4.9,2.3,4.9,5.3v0.6h-8
		c0.3,1.7,1.7,2.9,3.4,2.9c1,0,1.9-0.3,2.6-0.9l1.3,1.3C694.5,16.4,693.3,16.8,691.8,16.8z M688.4,10.7h6c-0.3-1.6-1.5-2.7-3-2.7
		C690,8,688.7,9.1,688.4,10.7z"/>
	<path class="st0" d="M696.8,6.5h2.2l3.2,7.6l3.2-7.6h2.1l-4.4,10.2h-1.9L696.8,6.5z"/>
	<path class="st0" d="M713.3,16.8c-3,0-5.3-2.3-5.3-5.3c0-2.9,2.2-5.2,5.1-5.2c2.8,0,4.9,2.3,4.9,5.3v0.6h-8
		c0.3,1.7,1.7,2.9,3.4,2.9c1,0,1.9-0.3,2.6-0.9l1.3,1.3C716,16.4,714.8,16.8,713.3,16.8z M709.9,10.7h6c-0.3-1.6-1.5-2.7-3-2.7
		C711.4,8,710.2,9.1,709.9,10.7z"/>
	<path class="st0" d="M721.8,16.7h-2v-14l2-0.4V16.7z"/>
	<path class="st0" d="M729,6.3c3,0,5.3,2.3,5.3,5.3c0,3-2.3,5.3-5.3,5.3c-3,0-5.3-2.3-5.3-5.3C723.7,8.6,726.1,6.3,729,6.3z
		 M732.4,11.6c0-2-1.5-3.5-3.3-3.5c-1.9,0-3.3,1.5-3.3,3.5s1.5,3.5,3.3,3.5C730.9,15.1,732.4,13.5,732.4,11.6z"/>
	<path class="st0" d="M736.2,6.5h2v1c0.8-0.7,1.9-1.1,3.1-1.1c2.9,0,5.1,2.3,5.1,5.2c0,3-2.3,5.3-5.2,5.3c-1.1,0-2.2-0.4-3.1-1v5h-2
		V6.5z M738.2,9.3v4.6c0.6,0.7,1.7,1.2,2.8,1.2c2,0,3.4-1.5,3.4-3.5s-1.5-3.5-3.4-3.5C739.9,8.1,738.9,8.5,738.2,9.3z"/>
	<path class="st0" d="M753.3,16.8c-3,0-5.3-2.3-5.3-5.3c0-2.9,2.2-5.2,5.1-5.2c2.8,0,4.9,2.3,4.9,5.3v0.6h-8
		c0.3,1.7,1.7,2.9,3.4,2.9c1,0,1.9-0.3,2.6-0.9l1.3,1.3C756,16.4,754.8,16.8,753.3,16.8z M749.9,10.7h6c-0.3-1.6-1.5-2.7-3-2.7
		C751.5,8,750.2,9.1,749.9,10.7z"/>
	<path class="st0" d="M759.9,6.5h2v1.3c0.6-1,1.6-1.5,2.8-1.5c0.4,0,0.7,0,1,0.2v1.8c-0.4-0.1-0.8-0.2-1.2-0.2
		c-1.2,0-2.1,0.6-2.6,1.9v6.8h-2V6.5z"/>
	<path class="st0" d="M776.3,16.8c-3,0-5.3-2.3-5.3-5.3c0-2.9,2.2-5.2,5.1-5.2c2.8,0,4.9,2.3,4.9,5.3v0.6h-8
		c0.3,1.7,1.7,2.9,3.4,2.9c1,0,1.9-0.3,2.6-0.9l1.3,1.3C779.1,16.4,777.9,16.8,776.3,16.8z M773,10.7h6c-0.3-1.6-1.5-2.7-3-2.7
		C774.5,8,773.3,9.1,773,10.7z"/>
	<path class="st0" d="M785,11.4l-3.8-5h2.3l2.6,3.5l2.6-3.5h2.3l-3.8,4.9l4,5.2h-2.4l-2.8-3.8l-2.8,3.8H781L785,11.4z"/>
	<path class="st0" d="M792.5,6.5h2v1c0.8-0.7,1.9-1.1,3.1-1.1c2.9,0,5.1,2.3,5.1,5.2c0,3-2.3,5.3-5.2,5.3c-1.1,0-2.2-0.4-3.1-1v5h-2
		V6.5z M794.5,9.3v4.6c0.6,0.7,1.7,1.2,2.8,1.2c2,0,3.4-1.5,3.4-3.5s-1.5-3.5-3.4-3.5C796.2,8.1,795.2,8.5,794.5,9.3z"/>
	<path class="st0" d="M809.6,16.8c-3,0-5.3-2.3-5.3-5.3c0-2.9,2.2-5.2,5.1-5.2c2.8,0,4.9,2.3,4.9,5.3v0.6h-8
		c0.3,1.7,1.7,2.9,3.4,2.9c1,0,1.9-0.3,2.6-0.9l1.3,1.3C812.3,16.4,811.1,16.8,809.6,16.8z M806.2,10.7h6c-0.3-1.6-1.5-2.7-3-2.7
		C807.8,8,806.5,9.1,806.2,10.7z"/>
	<path class="st0" d="M816.2,6.5h2v1.3c0.6-1,1.6-1.5,2.8-1.5c0.4,0,0.7,0,1,0.2v1.8c-0.4-0.1-0.8-0.2-1.2-0.2
		c-1.2,0-2.1,0.6-2.6,1.9v6.8h-2V6.5z"/>
	<path class="st0" d="M823.4,3.6c0-0.7,0.5-1.2,1.2-1.2c0.7,0,1.2,0.6,1.2,1.2s-0.6,1.2-1.2,1.2C823.9,4.8,823.4,4.3,823.4,3.6z
		 M825.6,16.7h-2V6.5h2V16.7z"/>
	<path class="st0" d="M832.8,16.8c-3,0-5.3-2.3-5.3-5.3c0-2.9,2.2-5.2,5.1-5.2c2.8,0,4.9,2.3,4.9,5.3v0.6h-8
		c0.3,1.7,1.7,2.9,3.4,2.9c1,0,1.9-0.3,2.6-0.9l1.3,1.3C835.6,16.4,834.3,16.8,832.8,16.8z M829.5,10.7h6c-0.3-1.6-1.5-2.7-3-2.7
		C831,8,829.8,9.1,829.5,10.7z"/>
	<path class="st0" d="M839.4,6.5h2v1c0.8-0.8,1.8-1.2,3.1-1.2c2.3,0,4,1.6,4,4v6.4h-2v-6.1c0-1.6-1-2.6-2.5-2.6
		c-1.1,0-2,0.5-2.5,1.3v7.3h-2V6.5z"/>
	<path class="st0" d="M858.3,13.8l1.2,1.3c-1.1,1.1-2.5,1.7-4,1.7c-2.9,0-5.2-2.3-5.2-5.3c0-3,2.3-5.3,5.2-5.3c1.5,0,3,0.6,4.1,1.7
		l-1.3,1.4c-0.8-0.8-1.8-1.3-2.8-1.3c-1.9,0-3.3,1.5-3.3,3.5c0,2,1.5,3.5,3.3,3.5C856.6,15.1,857.5,14.7,858.3,13.8z"/>
	<path class="st0" d="M865.6,16.8c-3,0-5.3-2.3-5.3-5.3c0-2.9,2.2-5.2,5.1-5.2c2.8,0,4.9,2.3,4.9,5.3v0.6h-8
		c0.3,1.7,1.7,2.9,3.4,2.9c1,0,1.9-0.3,2.6-0.9l1.3,1.3C868.4,16.4,867.2,16.8,865.6,16.8z M862.3,10.7h6c-0.3-1.6-1.5-2.7-3-2.7
		C863.8,8,862.6,9.1,862.3,10.7z"/>
</g>
<rect x="303.1" y="150.6" class="st10" width="285" height="52"/>
<rect x="605.6" y="57.4" class="st11" width="285" height="145.4"/>
<rect x="303.1" y="57.4" class="st10" width="285" height="84.8"/>
<rect x="1.1" y="57.4" class="st12" width="285" height="145.4"/>
<g>
	<path class="st2" d="M375.2,179.8c1.8,1.8,3.7,2.6,5.8,2.6c2.4,0,4.1-1.2,4.1-2.8c0-1.5-1-2.2-3.4-2.6l-2.8-0.5
		c-3.1-0.5-4.6-1.9-4.6-4.4c0-2.9,2.4-4.8,6.2-4.8c2.4,0,4.9,0.8,6.8,2.3l-1.4,1.9c-1.8-1.4-3.6-2.1-5.5-2.1c-2.2,0-3.6,1-3.6,2.5
		c0,1.4,0.8,2,3,2.4l2.7,0.4c3.6,0.6,5.2,2,5.2,4.7c0,3.1-2.7,5.2-6.7,5.2c-2.7,0-5.3-1.1-7.2-3L375.2,179.8z"/>
	<path class="st2" d="M395.7,184.6c-3.6,0-6.4-2.8-6.4-6.3c0-3.5,2.7-6.3,6.1-6.3c3.4,0,5.9,2.8,5.9,6.4v0.7h-9.6
		c0.3,2,2,3.5,4.1,3.5c1.2,0,2.3-0.4,3.1-1.1l1.5,1.5C399,184.1,397.5,184.6,395.7,184.6z M391.6,177.3h7.2
		c-0.4-1.9-1.8-3.3-3.6-3.3C393.5,174,392,175.3,391.6,177.3z"/>
	<path class="st2" d="M403.5,172.2h2.4v1.6c0.7-1.2,1.9-1.8,3.4-1.8c0.5,0,0.9,0,1.2,0.2v2.2c-0.5-0.2-0.9-0.3-1.4-0.3
		c-1.4,0-2.5,0.8-3.2,2.2v8.2h-2.4V172.2z"/>
	<path class="st2" d="M411.6,172.2h2.6l3.8,9.1l3.8-9.1h2.6l-5.3,12.2h-2.3L411.6,172.2z"/>
	<path class="st2" d="M425.7,168.7c0-0.8,0.6-1.5,1.5-1.5s1.5,0.7,1.5,1.5s-0.7,1.5-1.5,1.5S425.7,169.5,425.7,168.7z M428.3,184.4
		h-2.4v-12.2h2.4V184.4z"/>
	<path class="st2" d="M440.3,181l1.4,1.6c-1.3,1.3-3,2-4.8,2c-3.5,0-6.3-2.8-6.3-6.3c0-3.6,2.8-6.3,6.3-6.3c1.8,0,3.6,0.7,4.9,2
		l-1.5,1.6c-0.9-1-2.1-1.5-3.4-1.5c-2.2,0-4,1.8-4,4.2c0,2.4,1.8,4.2,4,4.2C438.2,182.5,439.3,182,440.3,181z"/>
	<path class="st2" d="M449,184.6c-3.6,0-6.4-2.8-6.4-6.3c0-3.5,2.7-6.3,6.1-6.3c3.4,0,5.9,2.8,5.9,6.4v0.7H445c0.3,2,2,3.5,4.1,3.5
		c1.2,0,2.3-0.4,3.1-1.1l1.5,1.5C452.3,184.1,450.9,184.6,449,184.6z M445,177.3h7.2c-0.4-1.9-1.8-3.3-3.6-3.3
		C446.8,174,445.4,175.3,445,177.3z"/>
	<path class="st2" d="M461.9,172.2h2.4v1.2c0.9-0.9,2.1-1.4,3.4-1.4c1.7,0,3,0.8,3.8,2c1-1.3,2.4-2,4.1-2c2.7,0,4.6,1.9,4.6,4.8v7.7
		h-2.4v-7.3c0-1.9-1.1-3.1-2.8-3.1c-1.2,0-2.2,0.6-2.9,1.6c0.1,0.3,0.1,0.7,0.1,1.1v7.7h-2.4v-7.3c0-1.9-1.1-3.1-2.8-3.1
		c-1.2,0-2.1,0.5-2.8,1.5v8.9h-2.4V172.2z"/>
	<path class="st2" d="M488.9,184.6c-3.6,0-6.4-2.8-6.4-6.3c0-3.5,2.7-6.3,6.1-6.3c3.4,0,5.9,2.8,5.9,6.4v0.7h-9.6
		c0.3,2,2,3.5,4.1,3.5c1.2,0,2.3-0.4,3.1-1.1l1.5,1.5C492.2,184.1,490.7,184.6,488.9,184.6z M484.9,177.3h7.2
		c-0.4-1.9-1.8-3.3-3.6-3.3C486.7,174,485.2,175.3,484.9,177.3z"/>
	<path class="st2" d="M497,181.2c1.3,1,2.6,1.5,4,1.5c1.7,0,2.9-0.7,2.9-1.8c0-0.9-0.6-1.4-2-1.6l-2.2-0.3c-2.4-0.4-3.6-1.5-3.6-3.4
		c0-2.2,1.9-3.7,4.8-3.7c1.8,0,3.4,0.5,4.9,1.6l-1.2,1.6c-1.3-0.9-2.6-1.3-3.9-1.3c-1.5,0-2.4,0.7-2.4,1.7c0,0.9,0.6,1.3,2,1.5
		l2.2,0.3c2.4,0.4,3.7,1.5,3.7,3.4c0,2.2-2.2,3.8-5.1,3.8c-2.1,0-4-0.6-5.4-1.8L497,181.2z"/>
	<path class="st2" d="M508,167.6l2.4-0.5v6.3c1-1,2.2-1.5,3.7-1.5c2.8,0,4.8,1.9,4.8,4.8v7.7h-2.4v-7.3c0-1.9-1.2-3.1-3-3.1
		c-1.3,0-2.4,0.6-3,1.6v8.8H508V167.6z"/>
</g>
<g>
	<path class="st2" d="M70.7,87.5l1.7,1.7c-1.7,1.8-4.2,2.9-6.7,2.9c-5,0-8.8-3.8-8.8-8.7c0-4.9,3.8-8.7,8.8-8.7
		c2.6,0,5.2,1.1,6.8,2.9l-1.7,1.7c-1.3-1.5-3.1-2.3-5.1-2.3c-3.6,0-6.2,2.7-6.2,6.3c0,3.6,2.7,6.3,6.3,6.3
		C67.7,89.8,69.5,89,70.7,87.5z"/>
	<path class="st2" d="M76.9,91.8h-2.4V75l2.4-0.5V91.8z"/>
	<path class="st2" d="M82.1,86.9c0,1.9,1.2,3.1,3,3.1c1.3,0,2.3-0.6,3-1.6v-8.8h2.4v12.2h-2.4v-1.2c-1,1-2.2,1.5-3.7,1.5
		c-2.8,0-4.8-2-4.8-4.8v-7.7h2.4V86.9z"/>
	<path class="st2" d="M93.5,88.7c1.3,1,2.6,1.5,4,1.5c1.7,0,2.9-0.7,2.9-1.8c0-0.9-0.6-1.4-2-1.6l-2.2-0.3c-2.4-0.4-3.6-1.5-3.6-3.4
		c0-2.2,1.9-3.7,4.8-3.7c1.8,0,3.4,0.5,4.9,1.6l-1.2,1.6c-1.3-0.9-2.6-1.3-3.9-1.3c-1.5,0-2.4,0.7-2.4,1.7c0,0.9,0.6,1.3,2,1.5
		l2.2,0.3c2.4,0.4,3.7,1.5,3.7,3.4c0,2.2-2.2,3.8-5.1,3.8c-2.1,0-4-0.6-5.4-1.8L93.5,88.7z"/>
	<path class="st2" d="M105.9,81.6h-2.6v-2h2.6v-3.1l2.4-0.6v3.7h3.6v2h-3.6v6.6c0,1.2,0.5,1.7,1.8,1.7c0.7,0,1.2-0.1,1.8-0.3v2
		c-0.6,0.2-1.6,0.4-2.3,0.4c-2.4,0-3.6-1.1-3.6-3.2V81.6z"/>
	<path class="st2" d="M119.2,92.1c-3.6,0-6.4-2.8-6.4-6.3c0-3.5,2.7-6.3,6.1-6.3c3.4,0,5.9,2.8,5.9,6.4v0.7h-9.6
		c0.3,2,2,3.5,4.1,3.5c1.2,0,2.3-0.4,3.1-1.1l1.5,1.5C122.5,91.6,121.1,92.1,119.2,92.1z M115.2,84.7h7.2c-0.4-1.9-1.8-3.3-3.6-3.3
		C117.1,81.4,115.6,82.8,115.2,84.7z"/>
	<path class="st2" d="M127.1,79.6h2.4v1.6c0.7-1.2,1.9-1.8,3.4-1.8c0.5,0,0.9,0,1.2,0.2v2.2c-0.5-0.2-0.9-0.3-1.4-0.3
		c-1.4,0-2.5,0.8-3.2,2.2v8.2h-2.4V79.6z"/>
	<path class="st2" d="M141.2,88.7c1.3,1,2.6,1.5,4,1.5c1.7,0,2.9-0.7,2.9-1.8c0-0.9-0.6-1.4-2-1.6l-2.2-0.3
		c-2.4-0.4-3.6-1.5-3.6-3.4c0-2.2,1.9-3.7,4.8-3.7c1.8,0,3.4,0.5,4.9,1.6l-1.2,1.6c-1.3-0.9-2.6-1.3-3.9-1.3c-1.5,0-2.4,0.7-2.4,1.7
		c0,0.9,0.6,1.3,2,1.5l2.2,0.3c2.4,0.4,3.7,1.5,3.7,3.4c0,2.2-2.2,3.8-5.1,3.8c-2.1,0-4-0.6-5.4-1.8L141.2,88.7z"/>
	<path class="st2" d="M158.2,92.1c-3.6,0-6.4-2.8-6.4-6.3c0-3.5,2.7-6.3,6.1-6.3c3.4,0,5.9,2.8,5.9,6.4v0.7h-9.6
		c0.3,2,2,3.5,4.1,3.5c1.2,0,2.3-0.4,3.1-1.1l1.5,1.5C161.5,91.6,160,92.1,158.2,92.1z M154.2,84.7h7.2c-0.4-1.9-1.8-3.3-3.6-3.3
		C156,81.4,154.5,82.8,154.2,84.7z"/>
	<path class="st2" d="M166.1,79.6h2.4v1.6c0.7-1.2,1.9-1.8,3.4-1.8c0.5,0,0.9,0,1.2,0.2v2.2c-0.5-0.2-0.9-0.3-1.4-0.3
		c-1.4,0-2.5,0.8-3.2,2.2v8.2h-2.4V79.6z"/>
	<path class="st2" d="M174.1,79.6h2.6l3.8,9.1l3.8-9.1h2.6l-5.3,12.2h-2.3L174.1,79.6z"/>
	<path class="st2" d="M188.2,76.2c0-0.8,0.6-1.5,1.5-1.5s1.5,0.7,1.5,1.5s-0.7,1.5-1.5,1.5S188.2,77,188.2,76.2z M190.9,91.8h-2.4
		V79.6h2.4V91.8z"/>
	<path class="st2" d="M202.8,88.5l1.4,1.6c-1.3,1.3-3,2-4.8,2c-3.5,0-6.3-2.8-6.3-6.3c0-3.6,2.8-6.3,6.3-6.3c1.8,0,3.6,0.7,4.9,2
		l-1.5,1.6c-0.9-1-2.1-1.5-3.4-1.5c-2.2,0-4,1.8-4,4.2c0,2.4,1.8,4.2,4,4.2C200.7,89.9,201.8,89.5,202.8,88.5z"/>
	<path class="st2" d="M211.6,92.1c-3.6,0-6.4-2.8-6.4-6.3c0-3.5,2.7-6.3,6.1-6.3c3.4,0,5.9,2.8,5.9,6.4v0.7h-9.6
		c0.3,2,2,3.5,4.1,3.5c1.2,0,2.3-0.4,3.1-1.1l1.5,1.5C214.9,91.6,213.4,92.1,211.6,92.1z M207.6,84.7h7.2c-0.4-1.9-1.8-3.3-3.6-3.3
		C209.4,81.4,207.9,82.8,207.6,84.7z"/>
	<path class="st2" d="M219.7,88.7c1.3,1,2.6,1.5,4,1.5c1.7,0,2.9-0.7,2.9-1.8c0-0.9-0.6-1.4-2-1.6l-2.2-0.3
		c-2.4-0.4-3.6-1.5-3.6-3.4c0-2.2,1.9-3.7,4.8-3.7c1.8,0,3.4,0.5,4.9,1.6l-1.2,1.6c-1.3-0.9-2.6-1.3-3.9-1.3c-1.5,0-2.4,0.7-2.4,1.7
		c0,0.9,0.6,1.3,2,1.5l2.2,0.3c2.4,0.4,3.7,1.5,3.7,3.4c0,2.2-2.2,3.8-5.1,3.8c-2.1,0-4-0.6-5.4-1.8L219.7,88.7z"/>
</g>
<g>
	<path class="st2" d="M97.9,110v11h-1.3v-12.6h1.9l4.3,8.9l4.3-8.9h1.9V121h-1.3v-11l-4.9,10.1L97.9,110z"/>
	<path class="st2" d="M116.4,111.8c2.6,0,4.6,2.1,4.6,4.7c0,2.6-2,4.7-4.6,4.7c-2.6,0-4.6-2.1-4.6-4.7
		C111.8,113.9,113.8,111.8,116.4,111.8z M119.7,116.5c0-2-1.4-3.5-3.3-3.5s-3.3,1.5-3.3,3.5c0,2,1.4,3.5,3.3,3.5
		C118.2,120,119.7,118.5,119.7,116.5z"/>
	<path class="st2" d="M123.3,112h1.3v1.1c0.7-0.8,1.7-1.2,2.8-1.2c2.1,0,3.5,1.4,3.5,3.5v5.7h-1.3v-5.4c0-1.6-1-2.6-2.5-2.6
		c-1.1,0-1.9,0.5-2.5,1.4v6.6h-1.3V112z"/>
	<path class="st2" d="M133.4,109.4c0-0.5,0.4-0.9,0.9-0.9c0.5,0,0.9,0.4,0.9,0.9c0,0.5-0.4,0.9-0.9,0.9
		C133.8,110.3,133.4,109.9,133.4,109.4z M135,121h-1.3v-9h1.3V121z"/>
	<path class="st2" d="M138.8,113.2h-1.9V112h1.9v-2.3l1.3-0.3v2.6h2.7v1.1h-2.7v5.5c0,1,0.4,1.4,1.4,1.4c0.5,0,0.9-0.1,1.3-0.2v1.2
		c-0.5,0.2-1.1,0.2-1.6,0.2c-1.6,0-2.4-0.8-2.4-2.2V113.2z"/>
	<path class="st2" d="M148.5,111.8c2.6,0,4.6,2.1,4.6,4.7c0,2.6-2,4.7-4.6,4.7c-2.6,0-4.6-2.1-4.6-4.7
		C143.9,113.9,145.9,111.8,148.5,111.8z M151.8,116.5c0-2-1.4-3.5-3.3-3.5s-3.3,1.5-3.3,3.5c0,2,1.4,3.5,3.3,3.5
		C150.3,120,151.8,118.5,151.8,116.5z"/>
	<path class="st2" d="M155.4,112h1.3v1.3c0.5-0.9,1.4-1.5,2.5-1.5c0.3,0,0.6,0,0.8,0.1v1.2c-0.3-0.1-0.6-0.2-0.9-0.2
		c-1.1,0-2,0.6-2.4,1.9v6.2h-1.3V112z"/>
	<path class="st2" d="M161.7,109.4c0-0.5,0.4-0.9,0.9-0.9c0.5,0,0.9,0.4,0.9,0.9c0,0.5-0.4,0.9-0.9,0.9
		C162.1,110.3,161.7,109.9,161.7,109.4z M163.3,121H162v-9h1.3V121z"/>
	<path class="st2" d="M166.1,112h1.3v1.1c0.7-0.8,1.7-1.2,2.8-1.2c2.1,0,3.5,1.4,3.5,3.5v5.7h-1.3v-5.4c0-1.6-1-2.6-2.5-2.6
		c-1.1,0-1.9,0.5-2.5,1.4v6.6h-1.3V112z"/>
	<path class="st2" d="M176,116.5c0-2.6,2-4.6,4.5-4.6c1,0,2,0.4,2.8,1.1V112h1.3v9.2c0,2.3-1.4,3.6-3.9,3.6c-1.3,0-2.5-0.3-3.5-0.9
		l0.6-1c1.1,0.6,2,0.8,2.9,0.8c1.7,0,2.6-0.8,2.6-2.4v-1.2c-0.8,0.7-1.8,1-2.9,1C178,121.1,176,119.1,176,116.5z M180.6,119.9
		c1.2,0,2.1-0.5,2.8-1.2v-4.4c-0.6-0.8-1.6-1.2-2.8-1.2c-1.9,0-3.3,1.5-3.3,3.4C177.3,118.4,178.7,119.9,180.6,119.9z"/>
	<path class="st2" d="M189.2,119.7l-1.4,3.8h-1l1-3.8H189.2z"/>
	<path class="st2" d="M100.3,145.9c0.8,0.8,1.9,1.2,2.9,1.2c1.4,0,2.4-0.7,2.4-1.6c0-0.8-0.5-1.2-1.7-1.4l-1.6-0.2
		c-1.8-0.3-2.7-1.1-2.7-2.4c0-1.5,1.4-2.6,3.4-2.6c1.3,0,2.4,0.4,3.5,1.2L106,141c-1-0.7-1.9-1-2.9-1c-1.2,0-2.1,0.6-2.1,1.5
		c0,0.8,0.5,1.2,1.7,1.3l1.6,0.2c1.8,0.3,2.7,1.1,2.7,2.4c0,1.6-1.6,2.8-3.7,2.8c-1.5,0-2.8-0.5-3.8-1.4L100.3,145.9z"/>
	<path class="st2" d="M109.1,135.4l1.3-0.3v5c0.7-0.8,1.7-1.2,2.8-1.2c2.1,0,3.5,1.4,3.5,3.5v5.7h-1.3v-5.4c0-1.6-1-2.6-2.5-2.6
		c-1.1,0-1.9,0.5-2.5,1.4v6.6h-1.3V135.4z"/>
	<path class="st2" d="M123.5,138.8c2.6,0,4.6,2.1,4.6,4.7c0,2.6-2,4.7-4.6,4.7c-2.6,0-4.6-2.1-4.6-4.7
		C118.9,140.9,121,138.8,123.5,138.8z M126.8,143.5c0-2-1.4-3.5-3.3-3.5s-3.3,1.5-3.3,3.5c0,2,1.4,3.5,3.3,3.5
		C125.4,147,126.8,145.5,126.8,143.5z"/>
	<path class="st2" d="M131.9,148l-2.5-9h1.3l1.9,7.2l2.3-7.2h1.2l2.2,7.2l2-7.2h1.3l-2.6,9h-1.3l-2.2-7.2l-2.3,7.2H131.9z"/>
	<path class="st2" d="M147.6,148.2c-1.1,0-2.1-0.4-2.9-1v0.9h-1.3v-12.6l1.3-0.3v4.8c0.8-0.7,1.8-1.1,2.9-1.1c2.6,0,4.5,2,4.5,4.6
		C152.1,146.1,150.1,148.2,147.6,148.2z M144.7,141.3v4.5c0.6,0.8,1.7,1.2,2.8,1.2c1.9,0,3.3-1.5,3.3-3.5s-1.5-3.5-3.3-3.5
		C146.3,140,145.3,140.5,144.7,141.3z"/>
	<path class="st2" d="M153.9,145.5c0-1.7,1.4-2.8,3.6-2.8c1,0,1.9,0.2,2.6,0.6v-1.2c0-1.4-0.8-2.2-2.4-2.2c-0.9,0-1.7,0.2-2.8,0.8
		l-0.5-1c1.3-0.6,2.4-0.9,3.5-0.9c2.3,0,3.6,1.1,3.6,3.1v6.1h-1.3v-0.9c-0.8,0.7-1.8,1-2.9,1C155.2,148.2,153.9,147.1,153.9,145.5z
		 M157.4,147.2c1.1,0,2-0.3,2.7-1v-1.7c-0.7-0.5-1.6-0.7-2.6-0.7c-1.4,0-2.4,0.7-2.4,1.7C155.1,146.5,156.1,147.2,157.4,147.2z"/>
	<path class="st2" d="M170.9,145.9l0.8,0.9c-1,0.9-2.2,1.4-3.5,1.4c-2.6,0-4.6-2.1-4.6-4.7c0-2.6,2-4.7,4.6-4.7
		c1.3,0,2.6,0.5,3.5,1.4l-0.8,1c-0.7-0.8-1.7-1.2-2.7-1.2c-1.9,0-3.3,1.5-3.3,3.5c0,2,1.5,3.5,3.3,3.5
		C169.3,147,170.2,146.6,170.9,145.9z"/>
	<path class="st2" d="M173.7,135.4l1.3-0.3v8l4.7-4.1h1.6l-5,4.3l5.2,4.7h-1.8l-4.8-4.3v4.3h-1.3V135.4z"/>
	<path class="st2" d="M185.1,146.7l-1.4,3.8h-1l1-3.8H185.1z"/>
	<path class="st2" d="M76.8,166h1.3v1.3c0.5-0.9,1.4-1.5,2.5-1.5c0.3,0,0.6,0,0.8,0.1v1.2c-0.3-0.1-0.6-0.2-0.9-0.2
		c-1.1,0-2,0.6-2.4,1.9v6.2h-1.3V166z"/>
	<path class="st2" d="M87.2,175.2c-2.6,0-4.6-2-4.6-4.7c0-2.6,2-4.6,4.4-4.6c2.4,0,4.3,2.1,4.3,4.6v0.4h-7.4
		c0.2,1.8,1.6,3.1,3.4,3.1c0.9,0,1.9-0.3,2.5-0.8l0.8,0.9C89.6,174.8,88.5,175.2,87.2,175.2z M83.9,169.9h6c-0.2-1.6-1.5-2.8-3-2.8
		C85.4,167,84.2,168.2,83.9,169.9z"/>
	<path class="st2" d="M93.2,170.5c0-2.6,2-4.6,4.5-4.6c1,0,2,0.4,2.8,1.1V166h1.3v9.2c0,2.3-1.4,3.6-3.9,3.6c-1.3,0-2.5-0.3-3.5-0.9
		l0.6-1c1.1,0.6,2,0.8,2.9,0.8c1.7,0,2.6-0.8,2.6-2.4v-1.2c-0.8,0.7-1.8,1-2.9,1C95.2,175.1,93.2,173.1,93.2,170.5z M97.8,173.9
		c1.2,0,2.1-0.5,2.8-1.2v-4.4c-0.6-0.8-1.6-1.2-2.8-1.2c-1.9,0-3.3,1.5-3.3,3.4C94.5,172.4,95.9,173.9,97.8,173.9z"/>
	<path class="st2" d="M104.4,163.4c0-0.5,0.4-0.9,0.9-0.9c0.5,0,0.9,0.4,0.9,0.9c0,0.5-0.4,0.9-0.9,0.9
		C104.9,164.3,104.4,163.9,104.4,163.4z M106,175h-1.3v-9h1.3V175z"/>
	<path class="st2" d="M108.8,172.9c0.8,0.8,1.9,1.2,2.9,1.2c1.4,0,2.4-0.7,2.4-1.6c0-0.8-0.5-1.2-1.7-1.4l-1.6-0.2
		c-1.8-0.3-2.7-1.1-2.7-2.4c0-1.5,1.4-2.6,3.4-2.6c1.3,0,2.4,0.4,3.5,1.2l-0.7,0.9c-1-0.7-1.9-1-2.9-1c-1.2,0-2.1,0.6-2.1,1.5
		c0,0.8,0.5,1.2,1.7,1.3l1.6,0.2c1.8,0.3,2.7,1.1,2.7,2.4c0,1.6-1.6,2.8-3.7,2.8c-1.5,0-2.8-0.5-3.8-1.4L108.8,172.9z"/>
	<path class="st2" d="M118.7,167.2h-1.9V166h1.9v-2.3l1.3-0.3v2.6h2.7v1.1H120v5.5c0,1,0.4,1.4,1.4,1.4c0.5,0,0.9-0.1,1.3-0.2v1.2
		c-0.5,0.2-1.1,0.2-1.6,0.2c-1.6,0-2.4-0.8-2.4-2.2V167.2z"/>
	<path class="st2" d="M124.6,166h1.3v1.3c0.5-0.9,1.4-1.5,2.5-1.5c0.3,0,0.6,0,0.8,0.1v1.2c-0.3-0.1-0.6-0.2-0.9-0.2
		c-1.1,0-2,0.6-2.4,1.9v6.2h-1.3V166z"/>
	<path class="st2" d="M134.3,175l-3.7-9h1.5l2.9,7.4l3.2-7.4h1.4l-4.5,10.4c-0.8,1.7-1.6,2.4-3.1,2.4c-0.3,0-0.6,0-0.8-0.1v-1.2
		c0.2,0.1,0.4,0.1,0.8,0.1c0.8,0,1.4-0.5,1.8-1.4L134.3,175z"/>
	<path class="st2" d="M141.8,173.7l-1.4,3.8h-1l1-3.8H141.8z"/>
	<path class="st2" d="M149.8,175h-1.3v-12.6l1.3-0.3V175z"/>
	<path class="st2" d="M156.7,165.8c2.6,0,4.6,2.1,4.6,4.7c0,2.6-2,4.7-4.6,4.7c-2.6,0-4.6-2.1-4.6-4.7
		C152.1,167.9,154.2,165.8,156.7,165.8z M160,170.5c0-2-1.4-3.5-3.3-3.5s-3.3,1.5-3.3,3.5c0,2,1.4,3.5,3.3,3.5
		C158.6,174,160,172.5,160,170.5z"/>
	<path class="st2" d="M163.2,170.5c0-2.6,2-4.6,4.5-4.6c1,0,2,0.4,2.8,1.1V166h1.3v9.2c0,2.3-1.4,3.6-3.9,3.6
		c-1.3,0-2.5-0.3-3.5-0.9l0.6-1c1.1,0.6,2,0.8,2.9,0.8c1.7,0,2.6-0.8,2.6-2.4v-1.2c-0.8,0.7-1.8,1-2.9,1
		C165.2,175.1,163.2,173.1,163.2,170.5z M167.8,173.9c1.2,0,2.1-0.5,2.8-1.2v-4.4c-0.6-0.8-1.6-1.2-2.8-1.2c-1.9,0-3.3,1.5-3.3,3.4
		C164.5,172.4,165.9,173.9,167.8,173.9z"/>
	<path class="st2" d="M174.2,170.5c0-2.6,2-4.6,4.5-4.6c1,0,2,0.4,2.8,1.1V166h1.3v9.2c0,2.3-1.4,3.6-3.9,3.6
		c-1.3,0-2.5-0.3-3.5-0.9l0.6-1c1.1,0.6,2,0.8,2.9,0.8c1.7,0,2.6-0.8,2.6-2.4v-1.2c-0.8,0.7-1.8,1-2.9,1
		C176.2,175.1,174.2,173.1,174.2,170.5z M178.8,173.9c1.2,0,2.1-0.5,2.8-1.2v-4.4c-0.6-0.8-1.6-1.2-2.8-1.2c-1.9,0-3.3,1.5-3.3,3.4
		C175.5,172.4,177,173.9,178.8,173.9z"/>
	<path class="st2" d="M185.5,163.4c0-0.5,0.4-0.9,0.9-0.9c0.5,0,0.9,0.4,0.9,0.9c0,0.5-0.4,0.9-0.9,0.9
		C185.9,164.3,185.5,163.9,185.5,163.4z M187.1,175h-1.3v-9h1.3V175z"/>
	<path class="st2" d="M189.9,166h1.3v1.1c0.7-0.8,1.7-1.2,2.8-1.2c2.1,0,3.5,1.4,3.5,3.5v5.7h-1.3v-5.4c0-1.6-1-2.6-2.5-2.6
		c-1.1,0-1.9,0.5-2.5,1.4v6.6h-1.3V166z"/>
	<path class="st2" d="M199.7,170.5c0-2.6,2-4.6,4.5-4.6c1,0,2,0.4,2.8,1.1V166h1.3v9.2c0,2.3-1.4,3.6-3.9,3.6
		c-1.3,0-2.5-0.3-3.5-0.9l0.6-1c1.1,0.6,2,0.8,2.9,0.8c1.7,0,2.6-0.8,2.6-2.4v-1.2c-0.8,0.7-1.8,1-2.9,1
		C201.7,175.1,199.7,173.1,199.7,170.5z M204.3,173.9c1.2,0,2.1-0.5,2.8-1.2v-4.4c-0.6-0.8-1.6-1.2-2.8-1.2c-1.9,0-3.3,1.5-3.3,3.4
		C201,172.4,202.5,173.9,204.3,173.9z"/>
</g>
<g>
	<path class="st2" d="M343.4,75h3l6.9,16.8h-2.7l-1.9-4.9H341l-2,4.9h-2.6L343.4,75z M347.7,84.8l-2.9-7.4l-2.9,7.4H347.7z"/>
	<path class="st2" d="M354.7,79.6h2.4v1.2c1-0.9,2.3-1.4,3.7-1.4c3.5,0,6.2,2.8,6.2,6.3c0,3.6-2.7,6.3-6.2,6.3
		c-1.3,0-2.6-0.4-3.7-1.2v6h-2.4V79.6z M357.1,83v5.5c0.8,0.9,2,1.4,3.4,1.4c2.4,0,4.1-1.8,4.1-4.2c0-2.4-1.8-4.2-4.1-4.2
		C359.1,81.5,357.8,82,357.1,83z"/>
	<path class="st2" d="M369.2,79.6h2.4v1.2c1-0.9,2.3-1.4,3.7-1.4c3.5,0,6.2,2.8,6.2,6.3c0,3.6-2.7,6.3-6.2,6.3
		c-1.3,0-2.6-0.4-3.7-1.2v6h-2.4V79.6z M371.6,83v5.5c0.8,0.9,2,1.4,3.4,1.4c2.4,0,4.1-1.8,4.1-4.2c0-2.4-1.8-4.2-4.1-4.2
		C373.6,81.5,372.4,82,371.6,83z"/>
	<path class="st2" d="M386.2,91.8h-2.4V75l2.4-0.5V91.8z"/>
	<path class="st2" d="M388.8,76.2c0-0.8,0.6-1.5,1.5-1.5s1.5,0.7,1.5,1.5s-0.7,1.5-1.5,1.5S388.8,77,388.8,76.2z M391.4,91.8H389
		V79.6h2.4V91.8z"/>
	<path class="st2" d="M403.4,88.5l1.4,1.6c-1.3,1.3-3,2-4.8,2c-3.5,0-6.3-2.8-6.3-6.3c0-3.6,2.8-6.3,6.3-6.3c1.8,0,3.6,0.7,4.9,2
		l-1.5,1.6c-0.9-1-2.1-1.5-3.4-1.5c-2.2,0-4,1.8-4,4.2c0,2.4,1.8,4.2,4,4.2C401.3,89.9,402.4,89.5,403.4,88.5z"/>
	<path class="st2" d="M406.1,88.3c0-2.3,1.9-3.7,4.9-3.7c1.2,0,2.3,0.2,3.3,0.7V84c0-1.7-1-2.6-3-2.6c-1.1,0-2.3,0.3-3.8,1l-0.9-1.8
		c1.8-0.9,3.4-1.2,5-1.2c3.2,0,5,1.6,5,4.4v8.1h-2.4v-1.1c-1.1,0.9-2.3,1.3-3.8,1.3C408,92.1,406.1,90.5,406.1,88.3z M411.2,90.3
		c1.3,0,2.4-0.4,3.2-1.2V87c-0.9-0.5-1.9-0.7-3.1-0.7c-1.8,0-2.8,0.8-2.8,2C408.4,89.5,409.5,90.3,411.2,90.3z"/>
	<path class="st2" d="M420.6,81.6H418v-2h2.6v-3.1l2.4-0.6v3.7h3.6v2H423v6.6c0,1.2,0.5,1.7,1.8,1.7c0.7,0,1.2-0.1,1.8-0.3v2
		c-0.6,0.2-1.6,0.4-2.3,0.4c-2.4,0-3.6-1.1-3.6-3.2V81.6z"/>
	<path class="st2" d="M428.1,76.2c0-0.8,0.6-1.5,1.5-1.5s1.5,0.7,1.5,1.5s-0.7,1.5-1.5,1.5S428.1,77,428.1,76.2z M430.8,91.8h-2.4
		V79.6h2.4V91.8z"/>
	<path class="st2" d="M439.4,79.4c3.6,0,6.3,2.8,6.3,6.3c0,3.6-2.8,6.4-6.3,6.4s-6.4-2.8-6.4-6.4C433.1,82.2,435.9,79.4,439.4,79.4z
		 M443.4,85.7c0-2.4-1.8-4.2-4-4.2c-2.2,0-4,1.8-4,4.2c0,2.4,1.8,4.2,4,4.2C441.6,90,443.4,88.1,443.4,85.7z"/>
	<path class="st2" d="M448,79.6h2.4v1.2c1-1,2.2-1.5,3.7-1.5c2.8,0,4.8,1.9,4.8,4.8v7.7h-2.4v-7.3c0-1.9-1.2-3.1-3-3.1
		c-1.3,0-2.4,0.6-3,1.6v8.8H448V79.6z"/>
	<path class="st2" d="M466.8,88.7c1.3,1,2.6,1.5,4,1.5c1.7,0,2.9-0.7,2.9-1.8c0-0.9-0.6-1.4-2-1.6l-2.2-0.3
		c-2.4-0.4-3.6-1.5-3.6-3.4c0-2.2,1.9-3.7,4.8-3.7c1.8,0,3.4,0.5,4.9,1.6l-1.2,1.6c-1.3-0.9-2.6-1.3-3.9-1.3c-1.5,0-2.4,0.7-2.4,1.7
		c0,0.9,0.6,1.3,2,1.5l2.2,0.3c2.4,0.4,3.7,1.5,3.7,3.4c0,2.2-2.2,3.8-5.1,3.8c-2.1,0-4-0.6-5.4-1.8L466.8,88.7z"/>
	<path class="st2" d="M483.8,92.1c-3.6,0-6.4-2.8-6.4-6.3c0-3.5,2.7-6.3,6.1-6.3c3.4,0,5.9,2.8,5.9,6.4v0.7h-9.6
		c0.3,2,2,3.5,4.1,3.5c1.2,0,2.3-0.4,3.1-1.1l1.5,1.5C487.1,91.6,485.6,92.1,483.8,92.1z M479.8,84.7h7.2c-0.4-1.9-1.8-3.3-3.6-3.3
		C481.6,81.4,480.1,82.8,479.8,84.7z"/>
	<path class="st2" d="M491.7,79.6h2.4v1.6c0.7-1.2,1.9-1.8,3.4-1.8c0.5,0,0.9,0,1.2,0.2v2.2c-0.5-0.2-0.9-0.3-1.4-0.3
		c-1.4,0-2.5,0.8-3.2,2.2v8.2h-2.4V79.6z"/>
	<path class="st2" d="M499.7,79.6h2.6l3.8,9.1l3.8-9.1h2.6l-5.3,12.2H505L499.7,79.6z"/>
	<path class="st2" d="M513.8,76.2c0-0.8,0.6-1.5,1.5-1.5s1.5,0.7,1.5,1.5s-0.7,1.5-1.5,1.5S513.8,77,513.8,76.2z M516.5,91.8h-2.4
		V79.6h2.4V91.8z"/>
	<path class="st2" d="M528.4,88.5l1.4,1.6c-1.3,1.3-3,2-4.8,2c-3.5,0-6.3-2.8-6.3-6.3c0-3.6,2.8-6.3,6.3-6.3c1.8,0,3.6,0.7,4.9,2
		l-1.5,1.6c-0.9-1-2.1-1.5-3.4-1.5c-2.2,0-4,1.8-4,4.2c0,2.4,1.8,4.2,4,4.2C526.3,89.9,527.4,89.5,528.4,88.5z"/>
	<path class="st2" d="M537.2,92.1c-3.6,0-6.4-2.8-6.4-6.3c0-3.5,2.7-6.3,6.1-6.3c3.4,0,5.9,2.8,5.9,6.4v0.7h-9.6
		c0.3,2,2,3.5,4.1,3.5c1.2,0,2.3-0.4,3.1-1.1l1.5,1.5C540.5,91.6,539,92.1,537.2,92.1z M533.2,84.7h7.2c-0.4-1.9-1.8-3.3-3.6-3.3
		C535,81.4,533.5,82.8,533.2,84.7z"/>
	<path class="st2" d="M545.3,88.7c1.3,1,2.6,1.5,4,1.5c1.7,0,2.9-0.7,2.9-1.8c0-0.9-0.6-1.4-2-1.6l-2.2-0.3
		c-2.4-0.4-3.6-1.5-3.6-3.4c0-2.2,1.9-3.7,4.8-3.7c1.8,0,3.4,0.5,4.9,1.6l-1.2,1.6c-1.3-0.9-2.6-1.3-3.9-1.3c-1.5,0-2.4,0.7-2.4,1.7
		c0,0.9,0.6,1.3,2,1.5l2.2,0.3c2.4,0.4,3.7,1.5,3.7,3.4c0,2.2-2.2,3.8-5.1,3.8c-2.1,0-4-0.6-5.4-1.8L545.3,88.7z"/>
</g>
<g>
	<path class="st2" d="M339.6,110.2v11h-1.3v-12.6h1.9l4.3,8.9l4.3-8.9h1.9v12.6h-1.3v-11l-4.9,10.1L339.6,110.2z"/>
	<path class="st2" d="M353.7,109.5c0-0.5,0.4-0.9,0.9-0.9c0.5,0,0.9,0.4,0.9,0.9c0,0.5-0.4,0.9-0.9,0.9
		C354.1,110.4,353.7,110,353.7,109.5z M355.2,121.2h-1.3v-9h1.3V121.2z"/>
	<path class="st2" d="M364.9,120.2c-0.8,0.7-1.8,1.1-2.9,1.1c-2.5,0-4.5-2-4.5-4.7c0-2.6,2-4.6,4.6-4.6c1,0,2.1,0.4,2.9,1v-4.5
		l1.3-0.3v12.9h-1.3V120.2z M362.2,120.1c1.1,0,2.1-0.5,2.8-1.3v-4.5c-0.6-0.8-1.7-1.2-2.8-1.2c-1.9,0-3.3,1.5-3.3,3.5
		C358.8,118.6,360.3,120.1,362.2,120.1z"/>
	<path class="st2" d="M376,120.2c-0.8,0.7-1.8,1.1-2.9,1.1c-2.5,0-4.5-2-4.5-4.7c0-2.6,2-4.6,4.6-4.6c1,0,2.1,0.4,2.9,1v-4.5
		l1.3-0.3v12.9H376V120.2z M373.2,120.1c1.1,0,2.1-0.5,2.8-1.3v-4.5c-0.6-0.8-1.7-1.2-2.8-1.2c-1.9,0-3.3,1.5-3.3,3.5
		C369.9,118.6,371.4,120.1,373.2,120.1z"/>
	<path class="st2" d="M381.5,121.2h-1.3v-12.6l1.3-0.3V121.2z"/>
	<path class="st2" d="M388.4,121.3c-2.6,0-4.6-2-4.6-4.7c0-2.6,2-4.6,4.4-4.6c2.4,0,4.3,2.1,4.3,4.6v0.4h-7.4
		c0.2,1.8,1.6,3.1,3.4,3.1c0.9,0,1.9-0.3,2.5-0.8l0.8,0.9C390.8,121,389.7,121.3,388.4,121.3z M385.1,116h6c-0.2-1.6-1.5-2.8-3-2.8
		C386.6,113.2,385.4,114.3,385.1,116z"/>
	<path class="st2" d="M396.2,121.2l-2.5-9h1.3l1.9,7.2l2.3-7.2h1.2l2.2,7.2l2-7.2h1.3l-2.6,9H402l-2.2-7.2l-2.3,7.2H396.2z"/>
	<path class="st2" d="M407.1,118.6c0-1.7,1.4-2.8,3.6-2.8c1,0,1.9,0.2,2.6,0.6v-1.2c0-1.4-0.8-2.2-2.4-2.2c-0.9,0-1.7,0.2-2.8,0.8
		l-0.5-1c1.3-0.6,2.4-0.9,3.5-0.9c2.3,0,3.6,1.1,3.6,3.1v6.1h-1.3v-0.9c-0.8,0.7-1.8,1-2.9,1C408.4,121.3,407.1,120.2,407.1,118.6z
		 M410.7,120.3c1.1,0,2-0.3,2.7-1v-1.7c-0.7-0.5-1.6-0.7-2.6-0.7c-1.4,0-2.4,0.7-2.4,1.7C408.4,119.6,409.3,120.3,410.7,120.3z"/>
	<path class="st2" d="M417.4,112.1h1.3v1.3c0.5-0.9,1.4-1.5,2.5-1.5c0.3,0,0.6,0,0.8,0.1v1.2c-0.3-0.1-0.6-0.2-0.9-0.2
		c-1.1,0-2,0.6-2.4,1.9v6.2h-1.3V112.1z"/>
	<path class="st2" d="M427.8,121.3c-2.6,0-4.6-2-4.6-4.7c0-2.6,2-4.6,4.4-4.6c2.4,0,4.3,2.1,4.3,4.6v0.4h-7.4
		c0.2,1.8,1.6,3.1,3.4,3.1c0.9,0,1.9-0.3,2.5-0.8l0.8,0.9C430.2,121,429.1,121.3,427.8,121.3z M424.5,116h6c-0.2-1.6-1.5-2.8-3-2.8
		C426,113.2,424.7,114.3,424.5,116z"/>
	<path class="st2" d="M435.4,119.8l-1.4,3.8h-1l1-3.8H435.4z"/>
	<path class="st2" d="M443.4,112.1v-1.7c0-1.8,1-2.7,2.8-2.7c0.5,0,0.8,0,1.2,0.2v1.2c-0.4-0.1-0.7-0.2-1.1-0.2
		c-1.1,0-1.6,0.5-1.6,1.6v1.7h2.7v1.1h-2.7v7.9h-1.3v-7.9h-2.1v-1.1H443.4z"/>
	<path class="st2" d="M450.5,117.6c0,1.6,1,2.6,2.5,2.6c1.1,0,1.9-0.5,2.5-1.4v-6.6h1.3v9h-1.3v-1c-0.7,0.8-1.7,1.2-2.8,1.2
		c-2.1,0-3.5-1.4-3.5-3.5v-5.7h1.3V117.6z"/>
	<path class="st2" d="M459.7,112.1h1.3v1.1c0.7-0.8,1.7-1.2,2.8-1.2c2.1,0,3.5,1.4,3.5,3.5v5.7H466v-5.4c0-1.6-1-2.6-2.5-2.6
		c-1.1,0-1.9,0.5-2.5,1.4v6.6h-1.3V112.1z"/>
	<path class="st2" d="M476.8,119l0.8,0.9c-1,0.9-2.2,1.4-3.5,1.4c-2.6,0-4.6-2.1-4.6-4.7c0-2.6,2-4.7,4.6-4.7c1.3,0,2.6,0.5,3.5,1.4
		l-0.8,1c-0.7-0.8-1.7-1.2-2.7-1.2c-1.9,0-3.3,1.5-3.3,3.5c0,2,1.5,3.5,3.3,3.5C475.2,120.1,476,119.7,476.8,119z"/>
	<path class="st2" d="M481.1,113.3h-1.9v-1.1h1.9v-2.3l1.3-0.3v2.6h2.7v1.1h-2.7v5.5c0,1,0.4,1.4,1.4,1.4c0.5,0,0.9-0.1,1.3-0.2v1.2
		c-0.5,0.2-1.1,0.2-1.6,0.2c-1.6,0-2.4-0.8-2.4-2.2V113.3z"/>
	<path class="st2" d="M486.7,109.5c0-0.5,0.4-0.9,0.9-0.9c0.5,0,0.9,0.4,0.9,0.9c0,0.5-0.4,0.9-0.9,0.9
		C487.2,110.4,486.7,110,486.7,109.5z M488.3,121.2H487v-9h1.3V121.2z"/>
	<path class="st2" d="M495.2,112c2.6,0,4.6,2.1,4.6,4.7c0,2.6-2,4.7-4.6,4.7c-2.6,0-4.6-2.1-4.6-4.7C490.6,114,492.6,112,495.2,112z
		 M498.4,116.6c0-2-1.4-3.5-3.3-3.5s-3.3,1.5-3.3,3.5c0,2,1.4,3.5,3.3,3.5C497,120.2,498.4,118.6,498.4,116.6z"/>
	<path class="st2" d="M502.1,112.1h1.3v1.1c0.7-0.8,1.7-1.2,2.8-1.2c2.1,0,3.5,1.4,3.5,3.5v5.7h-1.3v-5.4c0-1.6-1-2.6-2.5-2.6
		c-1.1,0-1.9,0.5-2.5,1.4v6.6h-1.3V112.1z"/>
	<path class="st2" d="M512.4,119.1c0.8,0.8,1.9,1.2,2.9,1.2c1.4,0,2.4-0.7,2.4-1.6c0-0.8-0.5-1.2-1.7-1.4l-1.6-0.2
		c-1.8-0.3-2.7-1.1-2.7-2.4c0-1.5,1.4-2.6,3.4-2.6c1.3,0,2.4,0.4,3.5,1.2l-0.7,0.9c-1-0.7-1.9-1-2.9-1c-1.2,0-2.1,0.6-2.1,1.5
		c0,0.8,0.5,1.2,1.7,1.3l1.6,0.2c1.8,0.3,2.7,1.1,2.7,2.4c0,1.6-1.6,2.8-3.7,2.8c-1.5,0-2.8-0.5-3.8-1.4L512.4,119.1z"/>
	<path class="st2" d="M522.9,119.8l-1.4,3.8h-1l1-3.8H522.9z"/>
	<path class="st2" d="M529.8,108.6h1.4v12.6h-1.4V108.6z"/>
	<path class="st2" d="M534.4,118.1c1.3,1.4,2.8,2.1,4.4,2.1c2,0,3.4-1,3.4-2.5c0-1.3-0.8-1.9-2.9-2.3l-1.8-0.3
		c-2.4-0.4-3.5-1.4-3.5-3.2c0-2.1,1.8-3.5,4.4-3.5c1.8,0,3.5,0.6,5,1.7l-0.8,1.1c-1.4-1-2.8-1.6-4.2-1.6c-1.8,0-3,0.9-3,2.2
		c0,1.2,0.7,1.7,2.6,2l1.8,0.3c2.8,0.5,3.9,1.5,3.9,3.5c0,2.2-2,3.8-4.8,3.8c-2,0-3.9-0.8-5.3-2.3L534.4,118.1z"/>
	<path class="st2" d="M544.7,108.6h1.5l4.6,11.3l4.6-11.3h1.4l-5.2,12.6h-1.7L544.7,108.6z"/>
</g>
<g>
	<path class="st2" d="M646.1,75h5.9c5.1,0,8.9,3.6,8.9,8.4c0,4.8-3.8,8.4-8.9,8.4h-5.9V75z M648.6,77.3v12.3h3.5
		c3.5,0,6.2-2.7,6.2-6.1c0-3.5-2.7-6.2-6.2-6.2H648.6z"/>
	<path class="st2" d="M669.2,92.1c-3.6,0-6.4-2.8-6.4-6.3c0-3.5,2.7-6.3,6.1-6.3c3.4,0,5.9,2.8,5.9,6.4v0.7h-9.6
		c0.3,2,2,3.5,4.1,3.5c1.2,0,2.3-0.4,3.1-1.1l1.5,1.5C672.5,91.6,671,92.1,669.2,92.1z M665.2,84.7h7.2c-0.4-1.9-1.8-3.3-3.6-3.3
		C667,81.4,665.5,82.8,665.2,84.7z"/>
	<path class="st2" d="M675.2,79.6h2.6l3.8,9.1l3.8-9.1h2.6l-5.3,12.2h-2.3L675.2,79.6z"/>
	<path class="st2" d="M694.9,92.1c-3.6,0-6.4-2.8-6.4-6.3c0-3.5,2.7-6.3,6.1-6.3c3.4,0,5.9,2.8,5.9,6.4v0.7h-9.6
		c0.3,2,2,3.5,4.1,3.5c1.2,0,2.3-0.4,3.1-1.1l1.5,1.5C698.2,91.6,696.8,92.1,694.9,92.1z M690.9,84.7h7.2c-0.4-1.9-1.8-3.3-3.6-3.3
		C692.8,81.4,691.3,82.8,690.9,84.7z"/>
	<path class="st2" d="M705.2,91.8h-2.4V75l2.4-0.5V91.8z"/>
	<path class="st2" d="M713.9,79.4c3.6,0,6.3,2.8,6.3,6.3c0,3.6-2.8,6.4-6.3,6.4c-3.6,0-6.4-2.8-6.4-6.4
		C707.5,82.2,710.3,79.4,713.9,79.4z M717.9,85.7c0-2.4-1.8-4.2-4-4.2c-2.2,0-4,1.8-4,4.2c0,2.4,1.8,4.2,4,4.2
		C716.1,90,717.9,88.1,717.9,85.7z"/>
	<path class="st2" d="M722.5,79.6h2.4v1.2c1-0.9,2.3-1.4,3.7-1.4c3.5,0,6.2,2.8,6.2,6.3c0,3.6-2.7,6.3-6.2,6.3
		c-1.3,0-2.6-0.4-3.7-1.2v6h-2.4V79.6z M724.9,83v5.5c0.8,0.9,2,1.4,3.4,1.4c2.4,0,4.1-1.8,4.1-4.2c0-2.4-1.8-4.2-4.1-4.2
		C726.9,81.5,725.7,82,724.9,83z"/>
	<path class="st2" d="M743,92.1c-3.6,0-6.4-2.8-6.4-6.3c0-3.5,2.7-6.3,6.1-6.3c3.4,0,5.9,2.8,5.9,6.4v0.7h-9.6c0.3,2,2,3.5,4.1,3.5
		c1.2,0,2.3-0.4,3.1-1.1l1.5,1.5C746.3,91.6,744.8,92.1,743,92.1z M739,84.7h7.2c-0.4-1.9-1.8-3.3-3.6-3.3
		C740.8,81.4,739.3,82.8,739,84.7z"/>
	<path class="st2" d="M750.9,79.6h2.4v1.6c0.7-1.2,1.9-1.8,3.4-1.8c0.5,0,0.9,0,1.2,0.2v2.2c-0.5-0.2-0.9-0.3-1.4-0.3
		c-1.4,0-2.5,0.8-3.2,2.2v8.2h-2.4V79.6z"/>
	<path class="st2" d="M764.9,88.7c1.3,1,2.6,1.5,4,1.5c1.7,0,2.9-0.7,2.9-1.8c0-0.9-0.6-1.4-2-1.6l-2.2-0.3
		c-2.4-0.4-3.6-1.5-3.6-3.4c0-2.2,1.9-3.7,4.8-3.7c1.8,0,3.4,0.5,4.9,1.6l-1.2,1.6c-1.3-0.9-2.6-1.3-3.9-1.3c-1.5,0-2.4,0.7-2.4,1.7
		c0,0.9,0.6,1.3,2,1.5l2.2,0.3c2.4,0.4,3.7,1.5,3.7,3.4c0,2.2-2.2,3.8-5.1,3.8c-2.1,0-4-0.6-5.4-1.8L764.9,88.7z"/>
	<path class="st2" d="M781.9,92.1c-3.6,0-6.4-2.8-6.4-6.3c0-3.5,2.7-6.3,6.1-6.3c3.4,0,5.9,2.8,5.9,6.4v0.7h-9.6
		c0.3,2,2,3.5,4.1,3.5c1.2,0,2.3-0.4,3.1-1.1l1.5,1.5C785.2,91.6,783.7,92.1,781.9,92.1z M777.9,84.7h7.2c-0.4-1.9-1.8-3.3-3.6-3.3
		C779.7,81.4,778.3,82.8,777.9,84.7z"/>
	<path class="st2" d="M789.8,79.6h2.4v1.6c0.7-1.2,1.9-1.8,3.4-1.8c0.5,0,0.9,0,1.2,0.2v2.2c-0.5-0.2-0.9-0.3-1.4-0.3
		c-1.4,0-2.5,0.8-3.2,2.2v8.2h-2.4V79.6z"/>
	<path class="st2" d="M797.8,79.6h2.6l3.8,9.1l3.8-9.1h2.6l-5.3,12.2h-2.3L797.8,79.6z"/>
	<path class="st2" d="M811.9,76.2c0-0.8,0.6-1.5,1.5-1.5c0.8,0,1.5,0.7,1.5,1.5s-0.7,1.5-1.5,1.5C812.6,77.7,811.9,77,811.9,76.2z
		 M814.6,91.8h-2.4V79.6h2.4V91.8z"/>
	<path class="st2" d="M826.5,88.5L828,90c-1.3,1.3-3,2-4.8,2c-3.5,0-6.3-2.8-6.3-6.3c0-3.6,2.8-6.3,6.3-6.3c1.8,0,3.6,0.7,4.9,2
		l-1.5,1.6c-0.9-1-2.1-1.5-3.4-1.5c-2.2,0-4,1.8-4,4.2c0,2.4,1.8,4.2,4,4.2C824.5,89.9,825.5,89.5,826.5,88.5z"/>
	<path class="st2" d="M835.3,92.1c-3.6,0-6.4-2.8-6.4-6.3c0-3.5,2.7-6.3,6.1-6.3c3.4,0,5.9,2.8,5.9,6.4v0.7h-9.6
		c0.3,2,2,3.5,4.1,3.5c1.2,0,2.3-0.4,3.1-1.1l1.5,1.5C838.6,91.6,837.1,92.1,835.3,92.1z M831.3,84.7h7.2c-0.4-1.9-1.8-3.3-3.6-3.3
		C833.1,81.4,831.6,82.8,831.3,84.7z"/>
	<path class="st2" d="M843.4,88.7c1.3,1,2.6,1.5,4,1.5c1.7,0,2.9-0.7,2.9-1.8c0-0.9-0.6-1.4-2-1.6l-2.2-0.3
		c-2.4-0.4-3.6-1.5-3.6-3.4c0-2.2,1.9-3.7,4.8-3.7c1.8,0,3.4,0.5,4.9,1.6l-1.2,1.6c-1.3-0.9-2.6-1.3-3.9-1.3c-1.5,0-2.4,0.7-2.4,1.7
		c0,0.9,0.6,1.3,2,1.5l2.2,0.3c2.4,0.4,3.7,1.5,3.7,3.4c0,2.2-2.2,3.8-5.1,3.8c-2.1,0-4-0.6-5.4-1.8L843.4,88.7z"/>
</g>
<g>
	<path class="st2" d="M708.1,108.4h4.2c3.8,0,6.6,2.6,6.6,6.3c0,3.7-2.8,6.3-6.6,6.3h-4.2V108.4z M709.5,109.7v10.1h2.8
		c2.9,0,5.1-2.2,5.1-5s-2.2-5-5.1-5H709.5z"/>
	<path class="st2" d="M725.6,121.2c-2.6,0-4.6-2-4.6-4.7c0-2.6,2-4.6,4.4-4.6c2.4,0,4.3,2.1,4.3,4.6v0.4h-7.4
		c0.2,1.8,1.6,3.1,3.4,3.1c0.9,0,1.9-0.3,2.5-0.8l0.8,0.9C727.9,120.8,726.8,121.2,725.6,121.2z M722.3,115.9h6
		c-0.2-1.6-1.5-2.8-3-2.8C723.8,113,722.5,114.2,722.3,115.9z"/>
	<path class="st2" d="M730.5,112h1.5l3.1,7.3l3.1-7.3h1.4l-3.9,9h-1.3L730.5,112z"/>
	<path class="st2" d="M746.7,113.2h-1.9V112h1.9v-2.3l1.3-0.3v2.6h2.7v1.1H748v5.5c0,1,0.4,1.4,1.4,1.4c0.5,0,0.9-0.1,1.3-0.2v1.2
		c-0.5,0.2-1.1,0.2-1.6,0.2c-1.6,0-2.4-0.8-2.4-2.2V113.2z"/>
	<path class="st2" d="M756.4,111.8c2.6,0,4.6,2.1,4.6,4.7c0,2.6-2,4.7-4.6,4.7c-2.6,0-4.6-2.1-4.6-4.7
		C751.7,113.9,753.8,111.8,756.4,111.8z M759.6,116.5c0-2-1.4-3.5-3.3-3.5c-1.8,0-3.3,1.5-3.3,3.5c0,2,1.4,3.5,3.3,3.5
		C758.2,120,759.6,118.5,759.6,116.5z"/>
	<path class="st2" d="M767.4,111.8c2.6,0,4.6,2.1,4.6,4.7c0,2.6-2,4.7-4.6,4.7c-2.6,0-4.6-2.1-4.6-4.7
		C762.8,113.9,764.8,111.8,767.4,111.8z M770.7,116.5c0-2-1.4-3.5-3.3-3.5c-1.8,0-3.3,1.5-3.3,3.5c0,2,1.4,3.5,3.3,3.5
		C769.3,120,770.7,118.5,770.7,116.5z"/>
	<path class="st2" d="M775.7,121h-1.3v-12.6l1.3-0.3V121z"/>
	<path class="st2" d="M778.4,118.9c0.8,0.8,1.9,1.2,2.9,1.2c1.4,0,2.4-0.7,2.4-1.6c0-0.8-0.5-1.2-1.7-1.4l-1.6-0.2
		c-1.8-0.3-2.7-1.1-2.7-2.4c0-1.5,1.4-2.6,3.4-2.6c1.3,0,2.4,0.4,3.5,1.2l-0.7,0.9c-1-0.7-1.9-1-2.9-1c-1.2,0-2.1,0.6-2.1,1.5
		c0,0.8,0.5,1.2,1.7,1.3l1.6,0.2c1.8,0.3,2.7,1.1,2.7,2.4c0,1.6-1.6,2.8-3.7,2.8c-1.5,0-2.8-0.5-3.8-1.4L778.4,118.9z"/>
	<path class="st2" d="M788.9,119.7l-1.4,3.8h-1l1-3.8H788.9z"/>
	<path class="st2" d="M674.4,145.5c0-1.7,1.4-2.8,3.6-2.8c1,0,1.9,0.2,2.6,0.6v-1.2c0-1.4-0.8-2.2-2.4-2.2c-0.9,0-1.7,0.2-2.8,0.8
		l-0.5-1c1.3-0.6,2.4-0.9,3.5-0.9c2.3,0,3.6,1.1,3.6,3.1v6.1h-1.3v-0.9c-0.8,0.7-1.8,1-2.9,1C675.8,148.2,674.4,147.1,674.4,145.5z
		 M678,147.2c1.1,0,2-0.3,2.7-1v-1.7c-0.7-0.5-1.6-0.7-2.6-0.7c-1.4,0-2.4,0.7-2.4,1.7C675.7,146.5,676.6,147.2,678,147.2z"/>
	<path class="st2" d="M685.9,144.5c0,1.6,1,2.6,2.5,2.6c1.1,0,1.9-0.5,2.5-1.4V139h1.3v9h-1.3v-1c-0.7,0.8-1.7,1.2-2.8,1.2
		c-2.1,0-3.5-1.4-3.5-3.5V139h1.3V144.5z"/>
	<path class="st2" d="M696.1,140.2h-1.9V139h1.9v-2.3l1.3-0.3v2.6h2.7v1.1h-2.7v5.5c0,1,0.4,1.4,1.4,1.4c0.5,0,0.9-0.1,1.3-0.2v1.2
		c-0.5,0.2-1.1,0.2-1.6,0.2c-1.6,0-2.4-0.8-2.4-2.2V140.2z"/>
	<path class="st2" d="M705.8,138.8c2.6,0,4.6,2.1,4.6,4.7c0,2.6-2,4.7-4.6,4.7c-2.6,0-4.6-2.1-4.6-4.7
		C701.2,140.9,703.2,138.8,705.8,138.8z M709.1,143.5c0-2-1.4-3.5-3.3-3.5c-1.8,0-3.3,1.5-3.3,3.5c0,2,1.4,3.5,3.3,3.5
		C707.6,147,709.1,145.5,709.1,143.5z"/>
	<path class="st2" d="M712.7,139h1.3v1c0.7-0.8,1.6-1.2,2.6-1.2c1.3,0,2.3,0.6,2.8,1.6c0.7-1.1,1.8-1.6,3.1-1.6c2,0,3.3,1.4,3.3,3.5
		v5.7h-1.3v-5.4c0-1.6-0.9-2.6-2.3-2.6c-1,0-1.8,0.5-2.4,1.5c0.1,0.3,0.1,0.5,0.1,0.8v5.7h-1.3v-5.4c0-1.6-0.9-2.6-2.3-2.6
		c-1,0-1.7,0.5-2.3,1.3v6.7h-1.3V139z"/>
	<path class="st2" d="M728.1,145.5c0-1.7,1.4-2.8,3.6-2.8c1,0,1.9,0.2,2.6,0.6v-1.2c0-1.4-0.8-2.2-2.4-2.2c-0.9,0-1.7,0.2-2.8,0.8
		l-0.5-1c1.3-0.6,2.4-0.9,3.5-0.9c2.3,0,3.6,1.1,3.6,3.1v6.1h-1.3v-0.9c-0.8,0.7-1.8,1-2.9,1C729.4,148.2,728.1,147.1,728.1,145.5z
		 M731.6,147.2c1.1,0,2-0.3,2.7-1v-1.7c-0.7-0.5-1.6-0.7-2.6-0.7c-1.4,0-2.4,0.7-2.4,1.7C729.4,146.5,730.3,147.2,731.6,147.2z"/>
	<path class="st2" d="M739.2,140.2h-1.9V139h1.9v-2.3l1.3-0.3v2.6h2.7v1.1h-2.7v5.5c0,1,0.4,1.4,1.4,1.4c0.5,0,0.9-0.1,1.3-0.2v1.2
		c-0.5,0.2-1.1,0.2-1.6,0.2c-1.6,0-2.4-0.8-2.4-2.2V140.2z"/>
	<path class="st2" d="M748.9,148.2c-2.6,0-4.6-2-4.6-4.7c0-2.6,2-4.6,4.4-4.6c2.4,0,4.3,2.1,4.3,4.6v0.4h-7.4
		c0.2,1.8,1.6,3.1,3.4,3.1c0.9,0,1.9-0.3,2.5-0.8l0.8,0.9C751.3,147.8,750.2,148.2,748.9,148.2z M745.7,142.9h6
		c-0.2-1.6-1.5-2.8-3-2.8C747.1,140,745.9,141.2,745.7,142.9z"/>
	<path class="st2" d="M762.3,147.1c-0.8,0.7-1.8,1.1-2.9,1.1c-2.5,0-4.5-2-4.5-4.7c0-2.6,2-4.6,4.6-4.6c1,0,2.1,0.4,2.9,1v-4.5
		l1.3-0.3V148h-1.3V147.1z M759.5,147c1.1,0,2.1-0.5,2.8-1.3v-4.5c-0.6-0.8-1.7-1.2-2.8-1.2c-1.9,0-3.3,1.5-3.3,3.5
		C756.2,145.5,757.6,147,759.5,147z"/>
	<path class="st2" d="M774.9,148.2c-1.1,0-2.1-0.4-2.9-1v0.9h-1.3v-12.6l1.3-0.3v4.8c0.8-0.7,1.8-1.1,2.9-1.1c2.6,0,4.5,2,4.5,4.6
		C779.4,146.1,777.5,148.2,774.9,148.2z M772,141.3v4.5c0.6,0.8,1.7,1.2,2.8,1.2c1.9,0,3.3-1.5,3.3-3.5c0-2-1.5-3.5-3.3-3.5
		C773.6,140,772.6,140.5,772,141.3z"/>
	<path class="st2" d="M783,144.5c0,1.6,1,2.6,2.5,2.6c1.1,0,1.9-0.5,2.5-1.4V139h1.3v9H788v-1c-0.7,0.8-1.7,1.2-2.8,1.2
		c-2.1,0-3.5-1.4-3.5-3.5V139h1.3V144.5z"/>
	<path class="st2" d="M791.9,136.4c0-0.5,0.4-0.9,0.9-0.9c0.5,0,0.9,0.4,0.9,0.9c0,0.5-0.4,0.9-0.9,0.9
		C792.3,137.3,791.9,136.9,791.9,136.4z M793.5,148h-1.3v-9h1.3V148z"/>
	<path class="st2" d="M797.6,148h-1.3v-12.6l1.3-0.3V148z"/>
	<path class="st2" d="M807.4,147.1c-0.8,0.7-1.8,1.1-2.9,1.1c-2.5,0-4.5-2-4.5-4.7c0-2.6,2-4.6,4.6-4.6c1,0,2.1,0.4,2.9,1v-4.5
		l1.3-0.3V148h-1.3V147.1z M804.6,147c1.1,0,2.1-0.5,2.8-1.3v-4.5c-0.6-0.8-1.7-1.2-2.8-1.2c-1.9,0-3.3,1.5-3.3,3.5
		C801.2,145.5,802.7,147,804.6,147z"/>
	<path class="st2" d="M811.5,145.9c0.8,0.8,1.9,1.2,2.9,1.2c1.4,0,2.4-0.7,2.4-1.6c0-0.8-0.5-1.2-1.7-1.4l-1.6-0.2
		c-1.8-0.3-2.7-1.1-2.7-2.4c0-1.5,1.4-2.6,3.4-2.6c1.3,0,2.4,0.4,3.5,1.2l-0.7,0.9c-1-0.7-1.9-1-2.9-1c-1.2,0-2.1,0.6-2.1,1.5
		c0,0.8,0.5,1.2,1.7,1.3l1.6,0.2c1.8,0.3,2.7,1.1,2.7,2.4c0,1.6-1.6,2.8-3.7,2.8c-1.5,0-2.8-0.5-3.8-1.4L811.5,145.9z"/>
	<path class="st2" d="M821.9,146.7l-1.4,3.8h-1l1-3.8H821.9z"/>
	<path class="st2" d="M714.9,172.2l0.9,0.9c-1.3,1.3-3,2.1-5,2.1c-3.7,0-6.5-2.9-6.5-6.5c0-3.6,2.9-6.5,6.5-6.5c2,0,3.8,0.8,5,2.1
		l-0.9,1c-1-1.1-2.5-1.8-4.1-1.8c-2.9,0-5.1,2.3-5.1,5.2c0,3,2.2,5.2,5.2,5.2C712.5,174,713.9,173.3,714.9,172.2z"/>
	<path class="st2" d="M718.2,162.4h1.4V175h-1.4V162.4z"/>
	<path class="st2" d="M727.6,162.4h1.3l-7.6,16.3H720L727.6,162.4z"/>
	<path class="st2" d="M740.3,172.2l0.9,0.9c-1.3,1.3-3,2.1-5,2.1c-3.7,0-6.5-2.9-6.5-6.5c0-3.6,2.9-6.5,6.5-6.5c2,0,3.8,0.8,5,2.1
		l-0.9,1c-1-1.1-2.5-1.8-4.1-1.8c-2.9,0-5.1,2.3-5.1,5.2c0,3,2.2,5.2,5.2,5.2C737.9,174,739.4,173.3,740.3,172.2z"/>
	<path class="st2" d="M743.7,162.4h4.2c3.8,0,6.6,2.6,6.6,6.3c0,3.7-2.8,6.3-6.6,6.3h-4.2V162.4z M745,163.7v10.1h2.8
		c2.9,0,5.1-2.2,5.1-5s-2.2-5-5.1-5H745z"/>
	<path class="st2" d="M758,173.7l-1.4,3.8h-1l1-3.8H758z"/>
	<path class="st2" d="M764.9,162.4h1.4V175h-1.4V162.4z"/>
	<path class="st2" d="M769.6,162.4h4.2c3.8,0,6.6,2.6,6.6,6.3c0,3.7-2.8,6.3-6.6,6.3h-4.2V162.4z M771,163.7v10.1h2.8
		c2.9,0,5.1-2.2,5.1-5s-2.2-5-5.1-5H771z"/>
	<path class="st2" d="M783.1,162.4h9v1.2h-7.6v4.4h5v1.2h-5v4.5h7.7v1.2h-9.1V162.4z"/>
</g>
<polyline class="st6" points="561.4,38.9 888.5,38.9 888.5,2.5 "/>
<polyline class="st6" points="1,2.5 1,38.9 330.8,38.9 "/>
<g>
	<path class="st0" d="M360.2,36.5l1,1c-1.4,1.5-3.2,2.3-5.2,2.3c-4,0-7.1-3.2-7.1-7.2c0-4,3.1-7.2,7.1-7.2c2.1,0,4,0.8,5.3,2.3
		l-1,1.1c-1-1.2-2.6-2-4.3-2c-3.2,0-5.6,2.5-5.6,5.8s2.4,5.8,5.6,5.8C357.6,38.4,359.2,37.7,360.2,36.5z"/>
	<path class="st0" d="M363.2,36.8c0-1.7,1.5-2.9,3.7-2.9c1.1,0,2.1,0.2,3,0.8v-1.3c0-1.6-0.9-2.4-2.5-2.4c-0.9,0-1.8,0.3-3,0.8
		l-0.5-1.1c1.3-0.6,2.5-0.9,3.7-0.9c2.4,0,3.8,1.2,3.8,3.4v6.5h-1.4v-1.1c-0.9,0.9-1.9,1.3-3.1,1.3
		C364.6,39.8,363.2,38.5,363.2,36.8z M367,38.6c1.1,0,2-0.4,2.8-1.1v-1.9c-0.8-0.5-1.7-0.7-2.8-0.7c-1.5,0-2.5,0.7-2.5,1.8
		C364.6,37.9,365.6,38.6,367,38.6z"/>
	<path class="st0" d="M373.7,36.8c0-1.7,1.5-2.9,3.7-2.9c1.1,0,2.1,0.2,3,0.8v-1.3c0-1.6-0.9-2.4-2.5-2.4c-0.9,0-1.8,0.3-3,0.8
		l-0.5-1.1c1.3-0.6,2.5-0.9,3.7-0.9c2.4,0,3.8,1.2,3.8,3.4v6.5h-1.4v-1.1c-0.9,0.9-1.9,1.3-3.1,1.3
		C375.2,39.8,373.7,38.5,373.7,36.8z M377.5,38.6c1.1,0,2-0.4,2.8-1.1v-1.9c-0.8-0.5-1.7-0.7-2.8-0.7c-1.5,0-2.5,0.7-2.5,1.8
		C375.1,37.9,376.1,38.6,377.5,38.6z"/>
	<path class="st0" d="M384.7,36.3c1.7,1.6,3,2.2,4.8,2.2c2.2,0,3.7-1.2,3.7-2.8c0-1.4-0.8-2.1-3.1-2.5l-2.3-0.4
		c-2.6-0.5-3.7-1.5-3.7-3.4c0-2.4,2-4,4.8-4c2.1,0,3.8,0.6,5.5,1.8l-0.8,1.2c-1.4-1.1-3.1-1.7-4.7-1.7c-2,0-3.3,1.1-3.3,2.5
		c0,1.2,0.8,1.9,2.6,2.2l2.2,0.4c3,0.5,4.3,1.7,4.3,3.8c0,2.4-2.2,4.2-5.3,4.2c-2.2,0-4-0.8-5.7-2.4L384.7,36.3z"/>
</g>
<g>
	<path class="st0" d="M441.4,25.6h5.8c2.7,0,4.5,1.6,4.5,4.1c0,2.5-1.7,4.1-4.5,4.1h-4.2v5.7h-1.5V25.6z M442.9,26.9v5.6h4.1
		c1.9,0,3.1-1.1,3.1-2.8c0-1.7-1.2-2.8-3.1-2.8H442.9z"/>
	<path class="st0" d="M453.2,36.8c0-1.7,1.5-2.9,3.7-2.9c1.1,0,2.1,0.2,3,0.8v-1.3c0-1.6-0.9-2.4-2.5-2.4c-0.9,0-1.8,0.3-3,0.8
		l-0.5-1.1c1.3-0.6,2.5-0.9,3.7-0.9c2.4,0,3.8,1.2,3.8,3.4v6.5h-1.4v-1.1c-0.9,0.9-1.9,1.3-3.1,1.3
		C454.7,39.8,453.2,38.5,453.2,36.8z M457.1,38.6c1.1,0,2-0.4,2.8-1.1v-1.9c-0.8-0.5-1.7-0.7-2.8-0.7c-1.5,0-2.5,0.7-2.5,1.8
		C454.6,37.9,455.6,38.6,457.1,38.6z"/>
	<path class="st0" d="M463.7,36.8c0-1.7,1.5-2.9,3.7-2.9c1.1,0,2.1,0.2,3,0.8v-1.3c0-1.6-0.9-2.4-2.5-2.4c-0.9,0-1.8,0.3-3,0.8
		l-0.5-1.1c1.3-0.6,2.5-0.9,3.7-0.9c2.4,0,3.8,1.2,3.8,3.4v6.5h-1.4v-1.1c-0.9,0.9-1.9,1.3-3.1,1.3
		C465.2,39.8,463.7,38.5,463.7,36.8z M467.6,38.6c1.1,0,2-0.4,2.8-1.1v-1.9c-0.8-0.5-1.7-0.7-2.8-0.7c-1.5,0-2.5,0.7-2.5,1.8
		C465.1,37.9,466.1,38.6,467.6,38.6z"/>
	<path class="st0" d="M474.8,36.3c1.7,1.6,3,2.2,4.8,2.2c2.2,0,3.7-1.2,3.7-2.8c0-1.4-0.8-2.1-3.1-2.5l-2.3-0.4
		c-2.6-0.5-3.7-1.5-3.7-3.4c0-2.4,2-4,4.8-4c2.1,0,3.8,0.6,5.5,1.8l-0.8,1.2c-1.4-1.1-3.1-1.7-4.7-1.7c-2,0-3.3,1.1-3.3,2.5
		c0,1.2,0.8,1.9,2.6,2.2l2.2,0.4c3,0.5,4.3,1.7,4.3,3.8c0,2.4-2.2,4.2-5.3,4.2c-2.2,0-4-0.8-5.7-2.4L474.8,36.3z"/>
	<path class="st2" d="M492.7,25.6h1.3v18.1h-1.3V25.6z"/>
	<path class="st0" d="M502.7,25.6h9.6v1.3h-8v5h5.5v1.3h-5.5v6.3h-1.5V25.6z"/>
	<path class="st0" d="M512.8,36.8c0-1.7,1.5-2.9,3.7-2.9c1.1,0,2.1,0.2,3,0.8v-1.3c0-1.6-0.9-2.4-2.5-2.4c-0.9,0-1.8,0.3-3,0.8
		l-0.5-1.1c1.3-0.6,2.5-0.9,3.7-0.9c2.4,0,3.8,1.2,3.8,3.4v6.5h-1.4v-1.1c-0.9,0.9-1.9,1.3-3.1,1.3
		C514.2,39.8,512.8,38.5,512.8,36.8z M516.6,38.6c1.1,0,2-0.4,2.8-1.1v-1.9c-0.8-0.5-1.7-0.7-2.8-0.7c-1.5,0-2.5,0.7-2.5,1.8
		C514.2,37.9,515.2,38.6,516.6,38.6z"/>
	<path class="st0" d="M523.3,36.8c0-1.7,1.5-2.9,3.7-2.9c1.1,0,2.1,0.2,3,0.8v-1.3c0-1.6-0.9-2.4-2.5-2.4c-0.9,0-1.8,0.3-3,0.8
		l-0.5-1.1c1.3-0.6,2.5-0.9,3.7-0.9c2.4,0,3.8,1.2,3.8,3.4v6.5h-1.4v-1.1c-0.9,0.9-1.9,1.3-3.1,1.3
		C524.8,39.8,523.3,38.5,523.3,36.8z M527.1,38.6c1.1,0,2-0.4,2.8-1.1v-1.9c-0.8-0.5-1.7-0.7-2.8-0.7c-1.5,0-2.5,0.7-2.5,1.8
		C524.7,37.9,525.7,38.6,527.1,38.6z"/>
	<path class="st0" d="M534.3,36.3c1.7,1.6,3,2.2,4.8,2.2c2.2,0,3.7-1.2,3.7-2.8c0-1.4-0.8-2.1-3.1-2.5l-2.3-0.4
		c-2.6-0.5-3.7-1.5-3.7-3.4c0-2.4,2-4,4.8-4c2.1,0,3.8,0.6,5.5,1.8l-0.8,1.2c-1.4-1.1-3.1-1.7-4.7-1.7c-2,0-3.3,1.1-3.3,2.5
		c0,1.2,0.8,1.9,2.6,2.2l2.2,0.4c3,0.5,4.3,1.7,4.3,3.8c0,2.4-2.2,4.2-5.3,4.2c-2.2,0-4-0.8-5.7-2.4L534.3,36.3z"/>
</g>
<g>
	<g>
		<line class="st6" x1="415.9" y1="33.7" x2="429.9" y2="33.7"/>
		<polyline class="st6" points="423.9,39.7 429.9,33.7 423.9,27.7 		"/>
	</g>
	<g>
		<line class="st6" x1="415.9" y1="33.7" x2="401.9" y2="33.7"/>
		<polyline class="st6" points="407.9,39.7 401.9,33.7 407.9,27.7 		"/>
	</g>
</g>
<line class="st13" x1="491.8" y1="26.3" x2="491.8" y2="40"/>
</svg>
